<svg xmlns="http://www.w3.org/2000/svg" xmlns:xlink="http://www.w3.org/1999/xlink" width="128" height="128" viewBox="0 0 33.867 33.867"><defs><linearGradient id="a"><stop offset="0" stop-color="#f6f600"/><stop offset="1" stop-color="#f69134"/></linearGradient><linearGradient id="b"><stop offset="0" stop-color="#00ce4e"/><stop offset="1" stop-color="#a7e890"/></linearGradient><linearGradient id="c"><stop offset="0" stop-color="#f5f8ff"/><stop offset="1" stop-color="#a0c9ff"/></linearGradient><linearGradient id="f" x1="64" x2="64" y1="103.99" y2="54.449" gradientTransform="scale(.26458)" gradientUnits="userSpaceOnUse" xlink:href="#b"/><linearGradient id="d" x1="12.14" x2="12.14" y1="27.373" y2="32.808" gradientUnits="userSpaceOnUse" xlink:href="#b"/><linearGradient id="e" x1="21.034" x2="21.034" y1="26.952" y2="32.808" gradientUnits="userSpaceOnUse" xlink:href="#b"/><linearGradient id="g" x1="64" x2="64" y1="46.5" y2="4" gradientUnits="userSpaceOnUse" xlink:href="#b"/><linearGradient id="j" x1="11.833" x2="13.891" y1="9.121" y2="9.121" gradientTransform="rotate(90 12.862 9.12)" gradientUnits="userSpaceOnUse" xlink:href="#c"/><linearGradient id="k" x1="11.833" x2="13.891" y1="9.121" y2="9.121" gradientTransform="rotate(90 16.418 12.676)" gradientUnits="userSpaceOnUse" xlink:href="#c"/><linearGradient id="h" x1="2.929" x2="3.44" y1="24.941" y2="13.893" gradientUnits="userSpaceOnUse" xlink:href="#b"/><linearGradient id="i" x1="30.852" x2="30.427" y1="25.034" y2="13.893" gradientUnits="userSpaceOnUse" xlink:href="#b"/></defs><path fill="url(#d)" d="m 11.310938,21.563541 h 2.116666 c 0.732896,0 1.322917,0.590021 1.322917,1.322917 v 8.59896 c 0,0.732896 -0.590021,1.322916 -1.322917,1.322916 h -2.116666 c -0.732896,0 -1.3229171,-0.59002 -1.3229171,-1.322916 v -8.59896 c 0,-0.732896 0.5900211,-1.322917 1.3229171,-1.322917 z" paint-order="fill markers stroke"/><path fill="url(#e)" d="m 20.439063,21.563541 h 2.116666 c 0.732896,0 1.322917,0.590021 1.322917,1.322917 v 8.59896 c 0,0.732896 -0.590021,1.322916 -1.322917,1.322916 h -2.116666 c -0.732896,0 -1.322917,-0.59002 -1.322917,-1.322916 v -8.59896 c 0,-0.732896 0.590021,-1.322917 1.322917,-1.322917 z" paint-order="fill markers stroke"/><path fill="url(#f)" d="m 9.0950522,13.978092 c -0.7328958,0 -1.3229167,0.59002 -1.3229167,1.322916 v 10.495867 c 0,1.026054 0.8260292,1.852083 1.8520833,1.852083 H 24.242448 c 1.026054,0 1.852083,-0.826029 1.852083,-1.852083 V 15.301008 c 0,-0.732896 -0.59002,-1.322916 -1.322917,-1.322916 z" paint-order="fill markers stroke"/><path fill="url(#g)" d="m 38.386719,4.0039062 c -0.358713,0.023182 -0.716724,0.1279681 -1.056641,0.3242188 -1.208594,0.697782 -1.540172,2.1902844 -0.921875,3.4414062 l 4.730469,9.5722658 C 33.922833,23.678324 29.375,27.846577 29.375,38.248476 v 1.875 c 0,2.770001 2.23,5 5,5 h 59.25 c 2.770004,0 5,-2.229999 5,-5 v -1.875 c 0,-10.401899 -4.547833,-14.570152 -11.763672,-20.906679 L 91.591797,7.7695312 C 92.210094,6.5184094 91.878513,5.025907 90.669922,4.328125 90.216704,4.066457 89.728101,3.9681528 89.253906,4.0078125 88.463588,4.0739127 87.714441,4.5243609 87.230469,5.25 l -5.552735,8.324219 C 76.508401,10.510828 70.468601,8.75 64,8.75 c -6.4686,0 -12.508401,1.760828 -17.677734,4.824219 L 40.771484,5.25 C 40.287512,4.5243609 39.534463,4.073913 38.744141,4.0078125 38.625593,3.9978974 38.50629,3.9961788 38.386719,4.0039062 Z" paint-order="fill markers stroke" transform="scale(.26458)"/><path fill="url(#h)" d="m 3.4395823,13.892561 c 1.3192125,0 2.38125,1.062037 2.38125,2.38125 v 6.482293 c 0,1.319212 -1.0620375,2.38125 -2.38125,2.38125 -1.3192124,0 -2.3812499,-1.062038 -2.3812499,-2.38125 v -6.482293 c 0,-1.319213 1.0620375,-2.38125 2.3812499,-2.38125 z" paint-order="fill markers stroke"/><path fill="url(#i)" d="m 30.427085,13.892561 c 1.319213,0 2.38125,1.062037 2.38125,2.38125 v 6.482293 c 0,1.319212 -1.062037,2.38125 -2.38125,2.38125 -1.319212,0 -2.38125,-1.062038 -2.38125,-2.38125 v -6.482293 c 0,-1.319213 1.062038,-2.38125 2.38125,-2.38125 z" paint-order="fill markers stroke"/><g transform="translate(.516 -.702)"><path fill="url(#j)" d="m 12.862346,10.14956 a 1.0289876,1.0289876 0 0 1 -1.028988,-1.0289873 1.0289876,1.0289876 0 0 1 1.028988,-1.028988 1.0289876,1.0289876 0 0 1 1.028987,1.028988 1.0289876,1.0289876 0 0 1 -1.028987,1.0289873 z" paint-order="fill markers stroke"/><path fill="url(#k)" d="M 19.973023,10.14956 A 1.0289876,1.0289876 0 0 1 18.944035,9.1205727 1.0289876,1.0289876 0 0 1 19.973023,8.0915847 1.0289876,1.0289876 0 0 1 21.00201,9.1205727 1.0289876,1.0289876 0 0 1 19.973023,10.14956 Z" paint-order="fill markers stroke"/></g><path d="m 8.0700483,25.329313 v 0.26354 h 0.52917 v -0.26354 z m 1.3224,0 v 0.26354 h 0.5291701 v -0.26354 z m 1.3223997,0 v 0.26354 h 0.52917 v -0.26354 z m 1.32395,0 v 0.26354 h 0.52918 v -0.26354 z m 1.32241,0 v 0.26354 h 0.52916 v -0.26354 z m 1.32239,0 v 0.26354 h 0.52917 v -0.26354 z m 1.32396,0 v 0.26354 h 0.52917 v -0.26354 z m 1.3224,0 v 0.26354 h 0.52916 v -0.26354 z m 1.32239,0 v 0.26354 h 0.52917 v -0.26354 z m 1.32396,0 v 0.26354 h 0.52917 v -0.26354 z m 1.3224,0 v 0.26354 h 0.52916 v -0.26354 z m 1.32239,0 v 0.26354 h 0.52917 v -0.26354 z m 1.32396,0 v 0.26354 h 0.52917 v -0.26354 z m 1.3224,0 v 0.26354 h 0.52916 v -0.26354 z" style="line-height:normal;font-variant-ligatures:normal;font-variant-position:normal;font-variant-caps:normal;font-variant-numeric:normal;font-variant-alternates:normal;font-variant-east-asian:normal;font-feature-settings:normal;font-variation-settings:normal;text-indent:0;text-align:start;text-decoration-line:none;text-decoration-style:solid;text-decoration-color:#000;text-transform:none;text-orientation:mixed;white-space:normal;shape-padding:0;shape-margin:0;inline-size:0;isolation:auto;mix-blend-mode:normal;solid-color:#000;solid-opacity:1" fill="#1e9a4a" color="#000" enable-background="accumulate" font-family="sans-serif" font-weight="400" overflow="visible" paint-order="markers fill stroke"/></svg>