<svg xmlns="http://www.w3.org/2000/svg" xmlns:xlink="http://www.w3.org/1999/xlink" width="128" height="128" viewBox="0 0 33.867 33.867"><defs><linearGradient id="a"><stop offset="0" stop-color="#f6f600"/><stop offset="1" stop-color="#f69134"/></linearGradient><linearGradient id="c" x1="12.205" x2="10.42" y1="6.561" y2="27.235" gradientUnits="userSpaceOnUse" xlink:href="#b"/><linearGradient id="d" x1="26.231" x2="26.232" y1="11.267" y2="26.983" gradientUnits="userSpaceOnUse" xlink:href="#b"/><linearGradient id="e" x1="26.157" x2="26.212" y1="5.94" y2="10.804" gradientUnits="userSpaceOnUse" xlink:href="#b"/><linearGradient id="b"><stop offset="0" stop-color="#0cc8ef"/><stop offset="1" stop-color="#047afa"/></linearGradient></defs><path style="line-height:1.25;-inkscape-font-specification:'Arial Rounded MT Bold, '" fill="url(#c)" d="m 3.6434717,6.466271 c -1.2897003,0 -2.5701522,1.1854394 -2.5701522,2.8184327 V 24.978836 c 0,1.9604 1.3739962,2.818434 2.710469,2.818434 h 6.8662075 c 5.398631,0 6.411495,-4.103123 6.411495,-5.699395 0,-2.194248 -1.312939,-4.61156 -3.29489,-5.34851 1.477704,-1.055495 2.218986,-2.582355 2.218986,-4.5837 0,-1.596272 -1.012864,-5.699394 -6.4114945,-5.699394 z m 2.1964819,4.295345 H 8.055839 c 1.40169,0 3.147611,0.347836 3.147611,2.14819 0,1.800355 -1.7846346,2.108398 -2.7450517,2.108398 H 5.8399536 Z m 0,8.48372 h 3.694348 c 0.9604164,0 2.7450524,0.308044 2.7450524,2.108398 0,1.800355 -1.745921,2.14819 -3.1476117,2.14819 H 5.8399536 Z" font-family="Arial Rounded MT Bold" font-size="29.037" font-weight="400" letter-spacing="0"/><path d="m 29.859884,20.835726 h -6.401412 c 0,3.41528 2.317476,3.644034 2.949102,3.644034 2.01929,0 2.649789,-0.829828 2.942234,-1.490815 0.346373,-1.872586 3.222606,-1.609173 3.222606,0.246631 0,2.369858 -2.095952,4.561694 -6.061012,4.561694 -2.275583,0 -4.255475,-0.79745 -5.518727,-2.346269 -1.263251,-1.548818 -1.684402,-3.030317 -1.684402,-5.683959 0,-3.658147 1.232966,-5.462166 1.829984,-6.22625 2.899294,-3.7106174 9.024246,-2.828115 10.902033,1.378449 0.493187,1.104823 0.739781,2.230298 0.739781,3.376424 0,1.063522 -0.255246,1.755327 -0.765738,2.075416 -0.510492,0.309763 -1.228642,0.464645 -2.154449,0.464645 z m -6.269121,-3.418591 h 5.266861 c 0,-3.570103 -5.266861,-3.628382 -5.266861,0 z" style="line-height:1.25;-inkscape-font-specification:'Arial Rounded MT Bold, '" fill="url(#d)" font-family="Arial Rounded MT Bold" font-size="29.037" font-weight="400" letter-spacing="0"/><path fill="url(#e)" d="m 21.994506,7.1561414 h 8.099334 c 0.4405,0 0.795126,0.3546266 0.795126,0.7951268 v 1.2160764 c 0,0.4405003 -0.354626,0.7951268 -0.795126,0.7951268 h -8.099334 c -0.440501,0 -0.795127,-0.3546265 -0.795127,-0.7951268 V 7.9512682 c 0,-0.4405002 0.354626,-0.7951268 0.795127,-0.7951268 z" paint-order="fill markers stroke"/><path d="m 2.4751369,9.698026 h -0.26355 v 0.52917 h 0.26355 z m 0,1.3224 h -0.26355 v 0.52917 h 0.26355 z m 0,1.32395 h -0.26355 v 0.52917 h 0.26355 z m 0,1.3224 h -0.26355 v 0.52917 h 0.26355 z m 0,1.3224 h -0.26355 v 0.52917 h 0.26355 z m 0,1.32395 h -0.26355 v 0.52917 h 0.26355 z m 0,1.3224 h -0.26355 v 0.52917 h 0.26355 z m 0,1.3224 h -0.26355 v 0.52917 h 0.26355 z m 0,1.32395 h -0.26355 v 0.52917 h 0.26355 z m 0,1.3224 h -0.26355 v 0.52917 h 0.26355 z m 0,1.3224 h -0.26355 v 0.52917 h 0.26355 z m 0,1.32395 h -0.26355 v 0.52917 h 0.26355 z" style="line-height:normal;font-variant-ligatures:normal;font-variant-position:normal;font-variant-caps:normal;font-variant-numeric:normal;font-variant-alternates:normal;font-variant-east-asian:normal;font-feature-settings:normal;font-variation-settings:normal;text-indent:0;text-align:start;text-decoration-line:none;text-decoration-style:solid;text-decoration-color:#000;text-transform:none;text-orientation:mixed;white-space:normal;shape-padding:0;shape-margin:0;inline-size:0;isolation:auto;mix-blend-mode:normal;solid-color:#000;solid-opacity:1" fill="#024292" color="#000" enable-background="accumulate" font-family="sans-serif" font-weight="400" overflow="visible" paint-order="markers fill stroke"/></svg>