<svg xmlns="http://www.w3.org/2000/svg" xmlns:xlink="http://www.w3.org/1999/xlink" width="128" height="128" viewBox="0 0 33.867 33.867"><defs><linearGradient id="a"><stop offset="0" stop-color="#f6f600"/><stop offset="1" stop-color="#f69134"/></linearGradient><linearGradient id="b"><stop offset="0" stop-color="#ff5e3f"/><stop offset="1" stop-color="#ffb93f"/></linearGradient><linearGradient id="c"><stop offset="0" stop-color="#eaf2ff"/><stop offset="1" stop-color="#9bbaff"/></linearGradient><linearGradient id="d" x1="64" x2="64" y1="124" y2="4" gradientUnits="userSpaceOnUse" xlink:href="#b"/><linearGradient id="e" x1="16.933" x2="16.933" y1="23.614" y2="28.244" gradientTransform="matrix(.84416 0 0 .84416 .149 -10.938)" gradientUnits="userSpaceOnUse" xlink:href="#c"/><linearGradient id="f" x1="16.933" x2="16.933" y1="23.614" y2="28.244" gradientTransform="matrix(.84416 0 0 .84416 .149 1.762)" gradientUnits="userSpaceOnUse" xlink:href="#c"/></defs><path fill="url(#d)" d="m 32.416013,8.9687501 c -15.742671,0 -28.4160161,12.6752949 -28.4160161,28.4179689 V 90.583984 C 3.9999969,106.32666 16.673342,119 32.416013,119 H 94.583984 C 110.32666,119 123,106.32666 123,90.583984 V 59.25 c 0,-5.540001 -4.46,-10 -10,-10 l -14.151811,0 V 37.386719 c 0,-15.742674 -12.675299,-28.4179689 -28.417972,-28.4179689 z" paint-order="fill markers stroke" transform="scale(.26458)"/><path d="m 4.86402,29.35711 v 0.26355 h 0.52917 v -0.26355 z m 1.32395,0 v 0.26355 h 0.52917 v -0.26355 z m 1.3224,0 v 0.26355 h 0.52917 v -0.26355 z m 1.3224,0 v 0.26355 h 0.52917 v -0.26355 z m 1.32395,0 v 0.26355 h 0.52917 v -0.26355 z m 1.3224,0 v 0.26355 h 0.52917 v -0.26355 z m 1.3224,0 v 0.26355 h 0.52917 v -0.26355 z m 1.32395,0 v 0.26355 h 0.52917 v -0.26355 z m 1.3224,0 v 0.26355 h 0.52917 v -0.26355 z m 1.3224,0 v 0.26355 h 0.52917 v -0.26355 z m 1.32395,0 v 0.26355 h 0.52917 v -0.26355 z m 1.3224,0 v 0.26355 h 0.52917 v -0.26355 z m 1.3224,0 v 0.26355 h 0.52917 v -0.26355 z m 1.32395,0 v 0.26355 h 0.52762 v -0.26355 z m 1.3224,0 v 0.26355 h 0.52917 v -0.26355 z m 1.3224,0 v 0.26355 h 0.52917 v -0.26355 z m 1.32188,0 v 0.26355 h 0.52969 v -0.26355 z m 1.32241,0 v 0.26355 h 0.52916 v -0.26355 z m 1.32446,0 v 0.26355 h 0.52917 v -0.26355 z" style="line-height:normal;font-variant-ligatures:normal;font-variant-position:normal;font-variant-caps:normal;font-variant-numeric:normal;font-variant-alternates:normal;font-variant-east-asian:normal;font-feature-settings:normal;font-variation-settings:normal;text-indent:0;text-align:start;text-decoration-line:none;text-decoration-style:solid;text-decoration-color:#000;text-transform:none;text-orientation:mixed;white-space:normal;shape-padding:0;shape-margin:0;inline-size:0;isolation:auto;mix-blend-mode:normal;solid-color:#000;solid-opacity:1" fill="#e53b38" color="#000" enable-background="accumulate" font-family="sans-serif" font-weight="400" overflow="visible" paint-order="markers fill stroke"/><path fill="url(#e)" d="m 6.5140761,8.9958333 15.4596169,0 c 0.897083,0 1.619284,0.7222015 1.619284,1.6192847 0,0.897084 -0.722201,1.619285 -1.619284,1.619285 l -15.4596169,0 c -0.8970835,0 -1.6192843,-0.722201 -1.6192843,-1.619285 0,-0.8970832 0.7222008,-1.6192847 1.6192843,-1.6192847 z" paint-order="fill markers stroke"/><path fill="url(#f)" d="m 6.5140761,21.695833 20.7062219,0 c 0.897083,0 1.619284,0.722202 1.619284,1.619285 0,0.897084 -0.722201,1.619285 -1.619284,1.619285 l -20.7062219,0 c -0.8970835,0 -1.6192843,-0.722201 -1.6192843,-1.619285 0,-0.897083 0.7222008,-1.619285 1.6192843,-1.619285 z" paint-order="fill markers stroke"/><path d="m 4.6986554,4.4862767 v 0.26355 h 0.52917 v -0.26355 z m 1.32395,0 v 0.26355 h 0.52917 v -0.26355 z m 1.3224,0 v 0.26355 h 0.52917 v -0.26355 z m 1.3224,0 v 0.26355 h 0.52917 v -0.26355 z m 1.32395,0 v 0.26355 h 0.5291696 v -0.26355 z m 1.3224006,0 v 0.26355 h 0.52917 v -0.26355 z m 1.3224,0 v 0.26355 h 0.52917 v -0.26355 z m 1.32395,0 v 0.26355 h 0.52917 v -0.26355 z m 1.3224,0 v 0.26355 h 0.52917 v -0.26355 z m 1.3224,0 v 0.26355 h 0.52917 v -0.26355 z m 1.32395,0 v 0.26355 h 0.52917 v -0.26355 z m 1.3224,0 v 0.26355 h 0.52917 v -0.26355 z m 1.3224,0 v 0.26355 h 0.52917 v -0.26355 z m 1.32395,0 v 0.26355 h 0.52762 v -0.26355 z" style="line-height:normal;font-variant-ligatures:normal;font-variant-position:normal;font-variant-caps:normal;font-variant-numeric:normal;font-variant-alternates:normal;font-variant-east-asian:normal;font-feature-settings:normal;font-variation-settings:normal;text-indent:0;text-align:start;text-decoration-line:none;text-decoration-style:solid;text-decoration-color:#000;text-transform:none;text-orientation:mixed;white-space:normal;shape-padding:0;shape-margin:0;inline-size:0;isolation:auto;mix-blend-mode:normal;solid-color:#000;solid-opacity:1" fill="#e53b38" color="#000" enable-background="accumulate" font-family="sans-serif" font-weight="400" overflow="visible" paint-order="markers fill stroke"/></svg>