<svg xmlns="http://www.w3.org/2000/svg" xmlns:xlink="http://www.w3.org/1999/xlink" width="128" height="128" viewBox="0 0 33.867 33.867"><defs><linearGradient id="a"><stop offset="0" stop-color="#f6f600"/><stop offset="1" stop-color="#f69134"/></linearGradient><linearGradient id="b"><stop offset="0" stop-color="#0cc8ef"/><stop offset="1" stop-color="#047afa"/></linearGradient><linearGradient id="c" x1="16.933" x2="16.933" y1="5.54" y2="26.849" gradientUnits="userSpaceOnUse" xlink:href="#b"/></defs><path fill="url(#c)" d="m 11.343477,5.1769548 c -1.076086,0 -4.3203357,1.3158411 -4.9022201,1.5788841 C 5.8593736,7.0188823 5.2131385,7.8398994 4.4798051,9.194972 3.7464728,10.550044 3.157125,12.133552 2.2006039,14.463556 1.2440824,16.79356 1.0210172,21.286395 1.0529008,22.657408 c 0.031884,1.371015 0.1889526,2.441158 1.5936797,3.252177 1.404727,0.811019 2.6466581,1.658444 3.9539037,2.168588 1.307245,0.510146 2.1996989,0.876509 2.8054959,0.366363 0.6057959,-0.510144 1.0046799,-1.402748 1.0046799,-1.402748 0,0 0.573968,-0.796963 -0.5100896,-1.275225 -1.0840576,-0.47826 -1.626007,-0.813432 -1.5781796,-1.307635 0.047827,-0.494202 0.1270476,-0.764789 0.3980677,-0.701021 0.2710133,0.06377 0.9091292,1.21132 3.3641995,1.737406 2.455072,0.526088 4.848675,0.446681 4.848675,0.446681 0,0 2.393603,0.07941 4.848675,-0.446681 2.455071,-0.526086 3.093188,-1.673641 3.3642,-1.737406 0.271015,-0.06377 0.35024,0.206819 0.398068,0.701021 0.04783,0.494203 -0.494122,0.829376 -1.57818,1.307635 -1.084058,0.478262 -0.51009,1.275225 -0.51009,1.275225 0,0 0.398884,0.892604 1.00468,1.402748 0.605798,0.510146 1.498251,0.143783 2.805496,-0.366363 1.307247,-0.510144 2.549176,-1.357569 3.953904,-2.168588 1.404728,-0.811019 1.561788,-1.881161 1.59368,-3.252177 0.03188,-1.371012 -0.191181,-5.863849 -1.147702,-8.193852 -0.956525,-2.330004 -1.54587,-3.913512 -2.279203,-5.268584 -0.733333,-1.3550726 -1.379568,-2.1760897 -1.961452,-2.4391331 -0.581884,-0.263043 -3.826134,-1.5788841 -4.90222,-1.5788841 -1.076086,0 -1.394294,0.7496353 -1.394294,0.7496353 l -0.374817,0.8292488 c 0,0 -2.520634,-0.4788708 -3.804209,-0.4795573 -1.283574,-6.865e-4 -3.837281,0.4795573 -3.837281,0.4795573 L 12.737771,5.9265901 c 0,0 -0.318208,-0.7496353 -1.394294,-0.7496353 z m 0.116955,9.9481682 c 0.01315,-9.9e-5 0.0263,-9.9e-5 0.03945,0 1.568888,0 2.840723,1.372775 2.840723,3.066178 0,1.693403 -1.271835,3.066177 -2.840723,3.066177 -1.5688878,0 -2.8407226,-1.372774 -2.8407229,-3.066177 -1.501e-4,-1.676911 1.2478101,-3.042888 2.8012689,-3.066178 z m 10.906348,0 c 0.01315,-9.9e-5 0.0263,-9.9e-5 0.03945,0 1.553459,0.02329 2.801419,1.389267 2.801269,3.066178 0,1.693403 -1.271835,3.066177 -2.840723,3.066177 -1.568888,0 -2.840723,-1.372774 -2.840723,-3.066177 0,-1.693403 1.271835,-3.066178 2.840723,-3.066178 z" paint-order="fill markers stroke"/><path style="line-height:normal;font-variant-ligatures:normal;font-variant-position:normal;font-variant-caps:normal;font-variant-numeric:normal;font-variant-alternates:normal;font-variant-east-asian:normal;font-feature-settings:normal;font-variation-settings:normal;text-indent:0;text-align:start;text-decoration-line:none;text-decoration-style:solid;text-decoration-color:#000;text-transform:none;text-orientation:mixed;white-space:normal;shape-padding:0;shape-margin:0;inline-size:0;isolation:auto;mix-blend-mode:normal;solid-color:#000;solid-opacity:1" fill="#024292" d="m 24.716797,22.213919 -0.453125,0.259765 0.125,0.234375 0.464844,-0.267578 z m -15.5507814,0.08203 -0.1289062,0.232422 0.4667968,0.251953 0.125,-0.232422 z m 14.3945314,0.525391 -0.482422,0.210938 0.103516,0.242188 0.486328,-0.212891 z m -13.224609,0.07031 -0.111329,0.240234 0.488282,0.216797 0.103515,-0.24414 z m 12.009765,0.425781 -0.498047,0.169922 0.08398,0.251953 0.501953,-0.171875 z m -10.798828,0.07422 -0.08789,0.25 0.501954,0.171875 0.08398,-0.25 z m 9.546875,0.322266 -0.509766,0.134765 0.06641,0.25586 0.513671,-0.134766 z m -8.298828,0.07422 -0.06445,0.257813 0.513672,0.128906 0.06445,-0.257812 z m 7.021484,0.22461 -0.517578,0.09375 0.04492,0.261719 0.523438,-0.0957 z m -5.738281,0.06055 -0.04687,0.261718 0.525391,0.08398 0.04101,-0.261719 z m 4.443359,0.138672 -0.52539,0.04883 0.02344,0.263672 0.529297,-0.04883 z m -3.144531,0.03711 -0.02344,0.263672 0.53125,0.03906 0.01563,-0.265625 z m 1.835938,0.05469 -0.527344,0.0078 0.002,0.263672 0.53125,-0.0059 z" color="#000" enable-background="accumulate" font-family="sans-serif" font-weight="400" overflow="visible" paint-order="fill markers stroke"/></svg>