<svg xmlns="http://www.w3.org/2000/svg" xmlns:xlink="http://www.w3.org/1999/xlink" width="128" height="128" viewBox="0 0 33.867 33.867"><defs><linearGradient id="c"><stop offset="0" stop-color="#ea4c89"/><stop offset="1" stop-color="#ff7795"/></linearGradient><linearGradient id="b"><stop offset="0" stop-color="#c32361"/><stop offset="1" stop-color="#ea4c89"/></linearGradient><linearGradient id="a"><stop offset="0" stop-color="#f6f600"/><stop offset="1" stop-color="#f69134"/></linearGradient><linearGradient id="e" x1="65.165" x2="64" y1="122.336" y2="4" gradientUnits="userSpaceOnUse" xlink:href="#b"/><linearGradient id="d" x1="18.587" x2="19.182" y1="31.485" y2="2.381" gradientUnits="userSpaceOnUse" xlink:href="#c"/></defs><path fill="url(#d)" d="M 31.485415,16.933332 A 14.552083,14.552083 0 0 1 16.933332,31.485415 14.552083,14.552083 0 0 1 2.3812494,16.933332 14.552083,14.552083 0 0 1 16.933332,2.3812494 14.552083,14.552083 0 0 1 31.485415,16.933332 Z" paint-order="fill markers stroke"/><path style="line-height:normal;font-variant-ligatures:normal;font-variant-position:normal;font-variant-caps:normal;font-variant-numeric:normal;font-variant-alternates:normal;font-variant-east-asian:normal;font-feature-settings:normal;font-variation-settings:normal;text-indent:0;text-align:start;text-decoration-line:none;text-decoration-style:solid;text-decoration-color:#000;text-transform:none;text-orientation:mixed;white-space:normal;shape-padding:0;shape-margin:0;inline-size:0;isolation:auto;mix-blend-mode:normal;solid-color:#000;solid-opacity:1" fill="url(#e)" d="M 64 4 C 30.922137 4.0000008 4.0000008 30.922141 4 64 C 4 97.077858 30.922136 124 64 124 C 97.077858 124 124 97.077858 124 64 C 124 30.92214 97.077858 4 64 4 z M 64 14.001953 C 71.941273 14.001953 79.438533 15.847485 86.097656 19.123047 C 83.932086 29.667389 78.45235 38.993118 70.791016 45.974609 C 64.130005 35.114585 56.327648 25.381895 47.462891 16.800781 C 52.637747 14.994948 58.198553 14.001953 64 14.001953 z M 37.771484 21.404297 C 47.385779 30.203633 55.750201 40.37236 62.761719 51.953125 C 55.273138 56.42873 46.509014 59.001953 37.128906 59.001953 C 29.174108 59.001953 21.691569 57.137225 15.029297 53.845703 C 17.843138 40.132946 26.250264 28.498727 37.771484 21.404297 z M 95.017578 24.763672 C 106.58393 33.910208 113.99805 48.062426 113.99805 64 C 113.99805 64.698394 113.97348 65.390724 113.94531 66.082031 C 108.9495 64.734446 103.70344 64 98.294922 64 C 92.4296 64 86.763412 64.855376 81.400391 66.429688 C 79.67131 62.4383 77.81182 58.569646 75.830078 54.818359 C 84.980814 47.081639 91.782199 36.658805 95.017578 24.763672 z M 67.638672 60.652344 C 69.209029 63.689707 70.692717 66.814414 72.091797 70.027344 C 56.733209 77.504877 45.029758 91.344699 40.431641 108.12305 C 24.790353 99.773187 14.15094 83.357687 14.011719 64.375 C 21.132931 67.349086 28.948997 68.998047 37.128906 68.998047 C 48.259777 68.998047 58.692206 65.951414 67.638672 60.652344 z M 98.294922 74.001953 C 103.25208 74.001953 108.02527 74.721061 112.5332 76.056641 C 109.65657 87.730675 102.69367 97.763785 93.240234 104.57812 C 91.167851 94.414456 88.455279 84.804927 85.130859 75.753906 C 89.323691 74.615521 93.735703 74.001953 98.294922 74.001953 z M 75.8125 79.330078 C 79.268662 88.788808 82.033033 98.945524 84.072266 109.8125 C 77.931318 112.49804 71.146926 113.99805 64 113.99805 C 59.049514 113.99805 54.274607 113.27303 49.763672 111.94141 C 53.297265 97.660542 62.953394 85.805757 75.8125 79.330078 z " color="#000" enable-background="accumulate" font-family="sans-serif" font-weight="400" overflow="visible" paint-order="fill markers stroke" transform="scale(.26458)"/><path style="line-height:normal;font-variant-ligatures:normal;font-variant-position:normal;font-variant-caps:normal;font-variant-numeric:normal;font-variant-alternates:normal;font-variant-east-asian:normal;font-feature-settings:normal;font-variation-settings:normal;text-indent:0;text-align:start;text-decoration-line:none;text-decoration-style:solid;text-decoration-color:#000;text-transform:none;text-orientation:mixed;white-space:normal;shape-padding:0;shape-margin:0;inline-size:0;isolation:auto;mix-blend-mode:normal;solid-color:#000;solid-opacity:1" fill="#c82866" d="m 16.201562,5.2276047 0.002,0.2636719 0.525393,-0.00195 0.0039,-0.265625 z m 1.333984,0.033203 -0.02344,0.2636718 0.523437,0.052739 0.0293,-0.2617188 z m -2.140624,0.021484 -0.527348,0.066406 0.03711,0.2617187 0.521485,-0.064453 z m 3.466796,0.1601563 -0.05469,0.2578125 0.511715,0.117188 0.0625,-0.2578125 z m 1.292969,0.3359373 -0.08203,0.2519531 0.498043,0.169922 0.08789,-0.25 z m 1.25,0.4804687 -0.113281,0.2382813 0.474609,0.228516 0.117188,-0.2363281 z m -10.682031,0.7606771 -0.4434,0.2968791 0.150391,0.2167969 0.437493,-0.29102 z M 9.6367188,7.7949218 9.226562,8.1367188 9.3964839,8.3378906 9.8027335,8.0019537 Z M 25.054688,8.5195311 24.869141,8.7089843 25.240234,9.0820309 25.429688,8.8964841 Z M 8.640625,8.6894531 8.2734375,9.0742188 8.4667969,9.2558594 8.8300781,8.873047 Z m 17.322266,0.8125 -0.205079,0.1660157 0.32422,0.4140622 0.210938,-0.1621095 z m -18.2109379,0.1875 -0.320312,0.4257809 0.2148438,0.15625 0.3144529,-0.4199228 z m 19.0019529,0.8906249 -0.224609,0.140625 0.275395,0.44922 0.228515,-0.134766 z m -19.7714841,0.205078 -0.267582,0.458987 0.2304687,0.128906 0.263669,-0.453124 z m 20.4316401,0.957032 -0.236328,0.117187 0.224605,0.474609 0.240234,-0.111328 z m -21.0664058,0.216796 -0.216797,0.486329 0.2421875,0.105469 0.214844,-0.480466 z m 21.5917968,1.013672 -0.25,0.08789 0.16797,0.498046 0.251953,-0.08203 z m -22.0917968,0.228516 -0.158204,0.507812 0.2539063,0.07617 0.15625,-0.501953 z m 22.4726558,1.054687 -0.257812,0.05664 0.10547,0.513672 0.259765,-0.04883 z m 0.228516,1.316407 -0.263672,0.0293 0.05078,0.523438 0.263671,-0.02344 z m -22.9453124,2.873046 -0.2617187,0.03711 0.080078,0.52539 0.2617188,-0.04297 z m 0.2441406,1.283204 -0.2558593,0.06836 0.142578,0.513674 0.2539062,-0.07617 z m 22.0433598,0.547395 -0.18164,0.49414 0.248047,0.09375 0.18359,-0.500003 z m -21.6507816,0.700651 -0.2480469,0.09375 0.199219,0.494137 0.2441407,-0.09961 z m 21.1566406,0.508333 -0.23828,0.468752 0.232422,0.123047 0.24219,-0.474607 z m -20.6253906,0.685027 -0.234375,0.123047 0.253906,0.466801 0.2324219,-0.128907 z m 19.9945316,0.459505 -0.291056,0.437498 0.216797,0.15039 0.296876,-0.443364 z M 7.4355469,23.294922 7.21875,23.445312 7.5253906,23.878903 7.7402344,23.724606 Z m 18.5707031,0.398958 -0.337887,0.404296 0.203125,0.171875 0.33985,-0.41016 z m -17.7835938,0.644011 -0.1972656,0.173828 0.3554696,0.396487 0.1933594,-0.179687 z m 16.9105468,0.328645 -0.38281,0.361328 0.181641,0.195313 0.384767,-0.367191 z m -16.0042968,0.616667 -0.1796874,0.193359 0.3945313,0.355467 0.1757812,-0.197265 z m 1.0039058,0.835938 -0.1562495,0.214843 0.4335955,0.30664 0.150391,-0.216797 z m 10.939323,1.28177 -0.480466,0.21484 0.107422,0.242188 0.486331,-0.21679 z m -1.210937,0.486328 -0.501954,0.15626 0.07422,0.253907 0.509766,-0.15821 z m -1.259766,0.345704 -0.517578,0.09379 0.04297,0.261718 0.523441,-0.09574 z m -4.423828,0.06445 -0.04297,0.259765 0.525391,0.08203 0.03711,-0.261719 z m 3.128906,0.128906 -0.523438,0.03904 0.01563,0.263672 0.531255,-0.03904 z m -1.830078,0.02734 -0.01563,0.263671 0.531253,0.0255 0.0098,-0.265625 z" color="#000" enable-background="accumulate" font-family="sans-serif" font-weight="400" overflow="visible" paint-order="fill markers stroke"/></svg>