<svg xmlns="http://www.w3.org/2000/svg" xmlns:xlink="http://www.w3.org/1999/xlink" width="128" height="128" viewBox="0 0 33.867 33.867"><defs><linearGradient id="a"><stop offset="0" stop-color="#f6f600"/><stop offset="1" stop-color="#f69134"/></linearGradient><linearGradient id="b"><stop offset="0" stop-color="#0cc8ef"/><stop offset="1" stop-color="#047afa"/></linearGradient><linearGradient id="c" x1="25.602" x2="16.933" y1="16.933" y2="16.933" gradientUnits="userSpaceOnUse" xlink:href="#b"/><linearGradient id="d" x1="8.992" x2="13.709" y1="16.198" y2="16.198" gradientUnits="userSpaceOnUse" xlink:href="#b"/><linearGradient id="e" x1="16.933" x2="16.933" y1="1.058" y2="32.808" gradientUnits="userSpaceOnUse" xlink:href="#b"/></defs><path fill="url(#c)" d="m 18.855602,12.938228 v 6.518982 h 3.67936 c 0.879475,0 1.400501,-0.728135 1.5875,-1.5875 l 0.727604,-3.343982 c 0.186998,-0.859365 -0.708025,-1.5875 -1.5875,-1.5875 z" paint-order="fill markers stroke"/><path fill="url(#d)" d="m 10.579103,12.938228 c -0.8794751,0 -1.5875001,0.708025 -1.5875001,1.5875 v 3.343982 c 0,0.879475 0.708025,1.5875 1.5875001,1.5875 h 3.129605 v -6.518982 z" paint-order="fill markers stroke"/><path fill="url(#e)" d="M 12.960353,5.9898152 V 31.237369 c 0,0.879475 0.708025,1.5875 1.5875,1.5875 h 3.343982 c 0.879475,0 1.5875,-0.708025 1.5875,-1.5875 V 10.78177 c 0,-2.3767688 0.535298,-3.2044548 2.848921,-3.2044548 h 0.678322 c 0.879475,0 1.5875,-0.708025 1.5875,-1.5875 V 2.6458333 c 0,-0.879475 -0.708025,-1.5875 -1.5875,-1.5875 h -5.114743 c -3.365272,0 -4.931482,2.0545496 -4.931482,4.9314819 z" paint-order="fill markers stroke"/><path d="m 13.396964,30.947536 v 0.26354 h 0.52917 v -0.26354 z m 1.32189,0 v 0.26354 h 0.52968 v -0.26354 z m 1.20819,0 v 0.26354 h 0.52917 v -0.26354 z m 1.32395,0 v 0.26354 h 0.52917 v -0.26354 z m 1.3224,0 v 0.26354 h 0.529171 v -0.26354 z" style="line-height:normal;font-variant-ligatures:normal;font-variant-position:normal;font-variant-caps:normal;font-variant-numeric:normal;font-variant-alternates:normal;font-variant-east-asian:normal;font-feature-settings:normal;font-variation-settings:normal;text-indent:0;text-align:start;text-decoration-line:none;text-decoration-style:solid;text-decoration-color:#000;text-transform:none;text-orientation:mixed;white-space:normal;shape-padding:0;shape-margin:0;inline-size:0;isolation:auto;mix-blend-mode:normal;solid-color:#000;solid-opacity:1" fill="#024292" color="#000" enable-background="accumulate" font-family="sans-serif" font-weight="400" overflow="visible" paint-order="markers fill stroke"/></svg>