<svg xmlns="http://www.w3.org/2000/svg" xmlns:xlink="http://www.w3.org/1999/xlink" width="128" height="128" viewBox="0 0 33.867 33.867"><defs><linearGradient id="a"><stop offset="0" stop-color="#f6f600"/><stop offset="1" stop-color="#f69134"/></linearGradient><linearGradient id="b"><stop offset="0" stop-color="#d90947"/><stop offset="1" stop-color="#ff585b"/></linearGradient><linearGradient id="c" x1="49.46" x2="49.46" y1="109.25" y2="23" gradientUnits="userSpaceOnUse" xlink:href="#b"/><linearGradient id="d" x1="28.471" x2="28.471" y1="20.505" y2="13.097" gradientUnits="userSpaceOnUse" xlink:href="#b"/></defs><g><path style="line-height:normal;font-variant-ligatures:normal;font-variant-position:normal;font-variant-caps:normal;font-variant-numeric:normal;font-variant-alternates:normal;font-variant-east-asian:normal;font-feature-settings:normal;font-variation-settings:normal;text-indent:0;text-align:start;text-decoration-line:none;text-decoration-style:solid;text-decoration-color:#000;text-transform:none;text-orientation:mixed;white-space:normal;shape-padding:0;shape-margin:0;inline-size:0;isolation:auto;mix-blend-mode:normal;solid-color:#000;solid-opacity:1" fill="url(#c)" d="M 46.195312,22.339844 C 37.978608,22.220852 29.690049,24.510829 22.474609,29.332031 5.982179,40.351923 -0.46953853,61.614043 7.1210938,79.939453 14.711725,98.264859 34.299758,108.7349 53.753906,104.86523 73.208057,100.99556 87.298828,83.825512 87.298828,63.990234 v -3.710937 c 0,-1.906144 -1.267251,-3.984375 -3.492187,-3.984375 H 46.496094 c -2.509527,0 -4.529297,2.01977 -4.529297,4.529297 v 6.082031 c 0,2.509531 2.01977,4.529297 4.529297,4.529297 H 70.828125 C 68.133968,80.620506 60.560826,87.804372 50.75,89.755859 38.40948,92.210545 26.166594,85.665531 21.351562,74.041016 16.536531,62.416497 20.567508,49.130967 31.029297,42.140625 40.291,35.952152 52.184918,36.309742 60.964844,42.646484 c 1.658162,1.094034 4.565814,1.438104 6.220703,-0.216796 l 5.222656,-5.226563 C 74.148335,35.114983 72.790024,32.318186 71.550781,31.353516 65.160228,26.278933 57.542872,23.310633 49.708984,22.539062 48.541341,22.42406 47.369128,22.356843 46.195312,22.339844 Z" color="#000" enable-background="accumulate" font-family="sans-serif" font-weight="400" overflow="visible" paint-order="fill markers stroke" transform="scale(.26458)"/><path fill="url(#d)" d="m 28.431339,12.877767 c -0.66398,0 -1.198377,0.534397 -1.198377,1.198376 v 1.333769 h -1.333251 c -0.663978,0 -1.198893,0.534397 -1.198893,1.198376 v 0.65009 c 0,0.66398 0.534915,1.198377 1.198893,1.198376 h 1.333251 v 1.333769 c 0,0.663978 0.534397,1.198377 1.198377,1.198377 h 0.650089 c 0.66398,0 1.198377,-0.534399 1.198377,-1.198377 v -1.333769 h 1.33377 c 0.663977,0 1.198375,-0.534397 1.198375,-1.198376 v -0.65009 c 0,-0.663979 -0.534398,-1.198376 -1.198375,-1.198376 h -1.33377 v -1.333769 c 0,-0.663979 -0.534397,-1.198376 -1.198377,-1.198376 z" paint-order="fill markers stroke"/><path d="m 11.63582,17.599897 v 0.26355 h 0.52917 v -0.26355 z m 1.3224,0 v 0.26355 h 0.52917 v -0.26355 z m 1.3224,0 v 0.26355 h 0.52917 v -0.26355 z m 1.32395,0 v 0.26355 h 0.52762 v -0.26355 z m 1.3224,0 v 0.26355 h 0.52917 v -0.26355 z m 1.3224,0 v 0.26355 h 0.52917 v -0.26355 z" style="line-height:normal;font-variant-ligatures:normal;font-variant-position:normal;font-variant-caps:normal;font-variant-numeric:normal;font-variant-alternates:normal;font-variant-east-asian:normal;font-feature-settings:normal;font-variation-settings:normal;text-indent:0;text-align:start;text-decoration-line:none;text-decoration-style:solid;text-decoration-color:#000;text-transform:none;text-orientation:mixed;white-space:normal;shape-padding:0;shape-margin:0;inline-size:0;isolation:auto;mix-blend-mode:normal;solid-color:#000;solid-opacity:1" fill="#8c092f" color="#000" enable-background="accumulate" font-family="sans-serif" font-weight="400" overflow="visible" paint-order="markers fill stroke"/></g></svg>