<svg xmlns="http://www.w3.org/2000/svg" xmlns:xlink="http://www.w3.org/1999/xlink" width="128" height="128" viewBox="0 0 33.867 33.867"><defs><linearGradient id="b"><stop offset="0" stop-color="#fedd1e"/><stop offset=".532" stop-color="#f41107"/><stop offset="1" stop-color="#d400c5"/></linearGradient><linearGradient id="a"><stop offset="0" stop-color="#f6f600"/><stop offset="1" stop-color="#f69134"/></linearGradient><linearGradient id="c" x1="3.704" x2="30.163" y1="30.163" y2="3.704" gradientTransform="scale(3.77953)" gradientUnits="userSpaceOnUse" xlink:href="#b"/></defs><path style="line-height:normal;font-variant-ligatures:normal;font-variant-position:normal;font-variant-caps:normal;font-variant-numeric:normal;font-variant-alternates:normal;font-variant-east-asian:normal;font-feature-settings:normal;font-variation-settings:normal;text-indent:0;text-align:start;text-decoration-line:none;text-decoration-style:solid;text-decoration-color:#000;text-transform:none;text-orientation:mixed;white-space:normal;shape-padding:0;shape-margin:0;inline-size:0;isolation:auto;mix-blend-mode:normal;solid-color:#000;solid-opacity:1" fill="url(#c)" d="M 30.589844 8.9980469 C 18.714643 8.9980469 8.9980469 18.714643 8.9980469 30.589844 L 8.9980469 97.412109 C 8.9980469 109.28731 18.714643 119.00391 30.589844 119.00391 L 97.412109 119.00391 C 109.28731 119.00391 119.00391 109.28731 119.00391 97.412109 L 119.00391 30.589844 C 119.00391 18.714643 109.28731 8.9980469 97.412109 8.9980469 L 30.589844 8.9980469 z M 30.589844 19.001953 L 97.412109 19.001953 C 103.92029 19.001953 109.00195 24.081664 109.00195 30.589844 L 109.00195 97.412109 C 109.00195 103.92029 103.92029 109.00195 97.412109 109.00195 L 30.589844 109.00195 C 24.081664 109.00195 19.001953 103.92029 19.001953 97.412109 L 19.001953 30.589844 C 19.001953 24.081664 24.081664 19.001953 30.589844 19.001953 z M 96.634766 29.595703 A 5.0000003 4.9999998 51.67337 0 0 93.494141 30.673828 A 5.0000003 4.9999998 51.67337 0 0 92.673828 37.697266 A 5.0000003 4.9999998 51.67337 0 0 99.697266 38.517578 A 5.0000003 4.9999998 51.67337 0 0 100.51758 31.494141 A 5.0000003 4.9999998 51.67337 0 0 96.634766 29.595703 z M 63.75 33.742188 C 46.820551 33.742188 32.990234 47.574461 32.990234 64.503906 C 32.990234 81.433351 46.820551 95.263672 63.75 95.263672 C 80.679445 95.263672 94.509766 81.433351 94.509766 64.503906 C 94.509766 47.574461 80.679445 33.742187 63.75 33.742188 z M 63.75 43.738281 C 75.275042 43.738281 84.507812 52.978861 84.507812 64.503906 C 84.507812 76.028952 75.275042 85.261719 63.75 85.261719 C 52.224954 85.261719 42.992188 76.028952 42.992188 64.503906 C 42.992188 52.978861 52.224954 43.738281 63.75 43.738281 z " color="#000" enable-background="accumulate" font-family="sans-serif" font-weight="400" overflow="visible" paint-order="fill markers stroke" transform="scale(.26458)"/><path d="m 5.8218646,26.738618 v 0.26354 h 0.52917 v -0.26354 z m 1.3224,0 v 0.26354 h 0.5291702 v -0.26354 z m 1.3224002,0 v 0.26354 h 0.52917 v -0.26354 z m 1.32395,0 v 0.26354 h 0.5291702 v -0.26354 z m 1.3224002,0 v 0.26354 h 0.52917 v -0.26354 z m 1.3224,0 v 0.26354 h 0.52917 v -0.26354 z m 1.32395,0 v 0.26354 h 0.52917 v -0.26354 z m 1.3224,0 v 0.26354 h 0.52917 v -0.26354 z m 1.3224,0 v 0.26354 h 0.52917 v -0.26354 z m 1.32395,0 v 0.26354 h 0.52917 v -0.26354 z m 1.3224,0 v 0.26354 h 0.52917 v -0.26354 z m 1.3224,0 v 0.26354 h 0.52917 v -0.26354 z m 1.32395,0 v 0.26354 h 0.52917 v -0.26354 z m 1.3224,0 v 0.26354 h 0.52917 v -0.26354 z m 1.3224,0 v 0.26354 h 0.52917 v -0.26354 z m 1.32395,0 v 0.26354 h 0.52762 v -0.26354 z m 1.3224,0 v 0.26354 h 0.52917 v -0.26354 z" style="line-height:normal;font-variant-ligatures:normal;font-variant-position:normal;font-variant-caps:normal;font-variant-numeric:normal;font-variant-alternates:normal;font-variant-east-asian:normal;font-feature-settings:normal;font-variation-settings:normal;text-indent:0;text-align:start;text-decoration-line:none;text-decoration-style:solid;text-decoration-color:#000;text-transform:none;text-orientation:mixed;white-space:normal;shape-padding:0;shape-margin:0;inline-size:0;isolation:auto;mix-blend-mode:normal;solid-color:#000;solid-opacity:1" fill="#d30f0a" color="#000" enable-background="accumulate" font-family="sans-serif" font-weight="400" overflow="visible" paint-order="markers fill stroke"/></svg>