<svg xmlns="http://www.w3.org/2000/svg" xmlns:xlink="http://www.w3.org/1999/xlink" width="128" height="128" viewBox="0 0 33.867 33.867"><defs><linearGradient id="a"><stop offset="0" stop-color="#f6f600"/><stop offset="1" stop-color="#f69134"/></linearGradient><linearGradient id="b"><stop offset="0" stop-color="#0cc8ef"/><stop offset="1" stop-color="#047afa"/></linearGradient><linearGradient id="d" x1="16.292" x2="16.933" y1="7.726" y2="32.808" gradientTransform="translate(-10.58 -.008)" gradientUnits="userSpaceOnUse" xlink:href="#b"/><linearGradient id="e" x1="16.512" x2="16.933" y1="7.513" y2="32.808" gradientTransform="translate(-.847 -.008)" gradientUnits="userSpaceOnUse" xlink:href="#b"/><linearGradient id="c" x1="17.12" x2="16.933" y1="8.214" y2="32.808" gradientTransform="translate(12.01 -.008)" gradientUnits="userSpaceOnUse" xlink:href="#b"/><linearGradient id="f" x1="1.058" x2="7.484" y1="4.271" y2="4.271" gradientTransform="matrix(0 1.0364 -1.0364 0 10.14 -.039)" gradientUnits="userSpaceOnUse" xlink:href="#b"/></defs><path fill="url(#c)" d="m 17.764712,22.097243 c 1.284616,-4.794253 7.205667,-4.403231 7.205667,-0.236614 l 0,9.368472 c 0,0.87947 0.70803,1.5875 1.5875,1.5875 h 3.343981 c 0.879473,0 1.587503,-0.70803 1.5875,-1.5875 l 0,-12.840558 c 2.6e-5,-7.584508 -13.863456,-8.4984907 -13.795036,-2.481442 z" paint-order="fill markers stroke"/><path fill="url(#d)" d="m 3.9687497,10.379381 c -0.8794671,0 -1.5875001,0.70803 -1.5875001,1.5875 v 19.26222 c 0,0.87947 0.7080304,1.5875 1.5875001,1.5875 h 3.3439814 c 0.8794723,0 1.5875026,-0.70803 1.5874999,-1.5875 v -19.26222 c 2.7e-6,-0.87947 -0.7080276,-1.5875 -1.5874999,-1.5875 z" paint-order="fill markers stroke"/><path d="m 2.8178935,30.93927 v 0.26354 h 0.52917 v -0.26354 z m 1.32189,0 v 0.26354 h 0.52968 v -0.26354 z m 1.20819,0 v 0.26354 h 0.52917 v -0.26354 z m 1.32395,0 v 0.26354 h 0.52917 v -0.26354 z m 1.3224,0 v 0.26354 h 0.52918 v -0.26354 z" style="line-height:normal;font-variant-ligatures:normal;font-variant-position:normal;font-variant-caps:normal;font-variant-numeric:normal;font-variant-alternates:normal;font-variant-east-asian:normal;font-feature-settings:normal;font-variation-settings:normal;text-indent:0;text-align:start;text-decoration-line:none;text-decoration-style:solid;text-decoration-color:#000;text-transform:none;text-orientation:mixed;white-space:normal;shape-padding:0;shape-margin:0;inline-size:0;isolation:auto;mix-blend-mode:normal;solid-color:#000;solid-opacity:1" fill="#024292" color="#000" enable-background="accumulate" font-family="sans-serif" font-weight="400" overflow="visible" paint-order="markers fill stroke"/><path fill="url(#e)" d="m 13.700991,10.379381 c -0.879467,0 -1.5875,0.70803 -1.5875,1.5875 l 0,19.26222 c 0,0.87947 0.70803,1.5875 1.5875,1.5875 h 3.343981 c 0.879473,0 1.587503,-0.70803 1.5875,-1.5875 l 0,-19.26222 c 3e-6,-0.87947 -0.708027,-1.5875 -1.5875,-1.5875 z" paint-order="fill markers stroke"/><path d="M12.550135 30.93927v.26354h.52917v-.26354zm1.32189 0v.26354h.52968v-.26354zm1.20819 0v.26354h.52917v-.26354zm1.32395 0v.26354h.52917v-.26354zm1.3224 0v.26354h.52918v-.26354zM25.407023 30.93927v.26354h.52917v-.26354zm1.32189 0v.26354h.52968v-.26354zm1.20819 0v.26354h.52917v-.26354zm1.32395 0v.26354h.52917v-.26354zm1.3224 0v.26354h.52918v-.26354z" style="line-height:normal;font-variant-ligatures:normal;font-variant-position:normal;font-variant-caps:normal;font-variant-numeric:normal;font-variant-alternates:normal;font-variant-east-asian:normal;font-feature-settings:normal;font-variation-settings:normal;text-indent:0;text-align:start;text-decoration-line:none;text-decoration-style:solid;text-decoration-color:#000;text-transform:none;text-orientation:mixed;white-space:normal;shape-padding:0;shape-margin:0;inline-size:0;isolation:auto;mix-blend-mode:normal;solid-color:#000;solid-opacity:1" fill="#024292" color="#000" enable-background="accumulate" font-family="sans-serif" font-weight="400" overflow="visible" paint-order="markers fill stroke"/><path fill="url(#f)" d="M 5.7133499,7.7174076 A 3.3295373,3.3295373 0 0 1 2.3838126,4.3878703 3.3295373,3.3295373 0 0 1 5.7133499,1.0583329 3.3295373,3.3295373 0 0 1 9.0428872,4.3878703 3.3295373,3.3295373 0 0 1 5.7133499,7.7174076 Z" paint-order="fill markers stroke"/></svg>