<svg xmlns="http://www.w3.org/2000/svg" xmlns:xlink="http://www.w3.org/1999/xlink" width="128" height="128" viewBox="0 0 33.867 33.867"><defs><linearGradient id="b"><stop offset="0" stop-color="red"/><stop offset="1" stop-color="red" stop-opacity="0"/></linearGradient><linearGradient id="a"><stop offset="0" stop-color="#f6f600"/><stop offset="1" stop-color="#f69134"/></linearGradient><linearGradient id="d"><stop offset="0" stop-color="#f5f8ff"/><stop offset="1" stop-color="#a0c9ff"/></linearGradient><linearGradient id="e" x1="16.933" x2="16.933" y1="1.058" y2="31.485" gradientTransform="scale(3.77953)" gradientUnits="userSpaceOnUse" xlink:href="#c"/><linearGradient id="c"><stop offset="0" stop-color="#0cc8ef"/><stop offset="1" stop-color="#047afa"/></linearGradient><linearGradient id="f" x1="17.332" x2="17.332" y1="12.116" y2="21.19" gradientTransform="translate(-4.078 -4.078) scale(1.24084)" gradientUnits="userSpaceOnUse" xlink:href="#d"/></defs><path fill="url(#e)" d="M 64 4 A 60.000004 60.000004 0 0 0 4 64 A 60.000004 60.000004 0 0 0 16.351562 100.46094 C 13.899144 107.19424 12.991676 115.08738 15.451172 117.54688 C 18.107373 120.20307 27.100709 118.93805 34.125 116.0332 A 60.000004 60.000004 0 0 0 64 124 A 60.000004 60.000004 0 0 0 124 64 A 60.000004 60.000004 0 0 0 64 4 z " paint-order="fill markers stroke" transform="scale(.26458)"/><path fill="url(#f)" d="m 25.072397,12.834012 c -0.418536,-0.241643 -1.000605,-0.20004 -1.439333,0.302584 l -2.946057,3.1829 -6.906449,-3.98744 c -1.15556,-0.667162 -2.622817,-0.274011 -3.289978,0.881546 -0.02367,0.04089 -0.224991,0.390554 -0.278096,0.545802 l -1.8758177,5.87546 c -0.4318347,1.262514 1.0195021,2.100442 1.8969537,1.095207 l 2.946058,-3.182902 6.906449,3.987442 c 1.155559,0.667162 2.622816,0.274011 3.289978,-0.881548 0.02368,-0.04087 0.228212,-0.389486 0.278096,-0.5458 l 1.875819,-5.87546 c 0.215917,-0.631256 -0.03909,-1.15615 -0.457623,-1.397791 z" paint-order="fill markers stroke"/><path style="line-height:normal;font-variant-ligatures:normal;font-variant-position:normal;font-variant-caps:normal;font-variant-numeric:normal;font-variant-alternates:normal;font-variant-east-asian:normal;font-feature-settings:normal;font-variation-settings:normal;text-indent:0;text-align:start;text-decoration-line:none;text-decoration-style:solid;text-decoration-color:#000;text-transform:none;text-orientation:mixed;white-space:normal;shape-padding:0;shape-margin:0;inline-size:0;isolation:auto;mix-blend-mode:normal;solid-color:#000;solid-opacity:1" fill="#024292" d="m 17.022183,3.175413 -0.004,0.26563 0.52539,0.0137 0.01,-0.26563 z m -0.80469,0.0176 -0.5293,0.0371 0.0195,0.26367 0.52735,-0.0371 z m 2.13867,0.0547 -0.0312,0.26367 0.52149,0.0644 0.0371,-0.26172 z m -3.46679,0.0801 -0.52344,0.0879 0.0469,0.26171 0.51758,-0.0879 z m 4.78515,0.12305 -0.0547,0.25977 0.51563,0.11328 0.0586,-0.25781 z m -6.0957,0.13867 -0.51172,0.14063 0.0723,0.2539 0.50781,-0.13867 z m 7.39062,0.18946 -0.0801,0.25195 0.5,0.16602 0.0859,-0.25 z m -8.66601,0.19726 -0.49805,0.1875 0.0957,0.24805 0.49219,-0.18555 z m 9.91992,0.25781 -0.10156,0.24414 0.48242,0.20899 0.10742,-0.24024 z m -11.15625,0.25196 -0.47656,0.23633 0.12109,0.23632 0.47266,-0.23437 z m 12.36523,0.32031 -0.1289,0.23242 0.45898,0.25781 0.13281,-0.22851 z m -13.54101,0.30664 -0.45313,0.28125 0.14063,0.22266 0.44726,-0.27539 z m 14.68359,0.38086 -0.14844,0.2207 0.43164,0.29883 0.1543,-0.21484 z m -15.79883,0.35938 -0.42187,0.32421 0.16601,0.20704 0.41602,-0.32032 z m 16.87305,0.43554 -0.16992,0.20117 0.39843,0.34376 0.17579,-0.19922 z m -17.90625,0.40625 -0.38867,0.36328 0.18164,0.19141 0.38477,-0.35742 z m 18.89649,0.48828 -0.1875,0.18555 0.36523,0.37891 0.19141,-0.18164 z m -19.84766,0.45118 -0.35156,0.40039 0.20117,0.16992 0.34765,-0.39453 z m 20.75,0.53515 -0.20703,0.16406 0.33008,0.41602 0.20703,-0.16602 z m -21.60352,0.49024 -0.31054,0.43164 0.21484,0.15234 0.30859,-0.42578 z m 22.40039,0.58007 -0.2207,0.14649 0.28516,0.4414 0.22461,-0.14257 z m -23.15234,0.52539 -0.26758,0.45704 0.22852,0.13281 0.26758,-0.45703 z m 23.8457,0.61719 -0.23437,0.1211 0.24023,0.46875 0.23633,-0.11719 z m -24.48242,0.55469 -0.22265,0.48242 0.24023,0.10938 0.16406,-0.35938 0.0566,-0.11914 z m 25.0586,0.64844 -0.24415,0.10156 0.19532,0.48828 0.24609,-0.0957 z m -25.58399,0.58008 -0.17187,0.5039 0.25195,0.082 0.16992,-0.49804 z m 26.04297,0.67382 -0.25391,0.0762 0.14649,0.50586 0.2539,-0.0703 z m -26.44141,0.59961 -0.125,0.51758 0.25586,0.0606 0.125,-0.51172 z m 26.77539,0.69141 -0.25976,0.0547 0.0996,0.51758 0.25976,-0.0488 z m -27.05078,0.61523 -0.0742,0.52735 0.26172,0.0332 0.0742,-0.52149 z m 27.25977,0.70508 -0.26367,0.0273 0.0469,0.52344 0.26367,-0.0215 z m -27.41016,0.62305 -0.0234,0.5293 0.26368,0.0117 0.0234,-0.5293 z m 27.22656,0.70898 -0.006,0.52735 0.26368,0.006 0.006,-0.53125 z m -26.97851,0.61328 -0.26563,0.0117 0.0293,0.53125 0.26367,-0.0156 z m 26.92773,0.69727 -0.0547,0.52344 0.26368,0.0293 0.0547,-0.5293 z m -26.82226,0.60742 -0.26172,0.0391 0.082,0.52539 0.25977,-0.0449 z m 26.64844,0.68945 -0.10743,0.51563 0.25782,0.0566 0.10937,-0.51953 z m -26.41211,0.60157 -0.25782,0.0606 0.12891,0.51562 0.25586,-0.0664 z m 26.10937,0.67383 -0.15625,0.50195 0.25391,0.0801 0.15625,-0.50781 z m -25.75391,0.58398 -0.24804,0.0879 0.18164,0.5 0.24609,-0.0937 z m 25.33204,0.6543 -0.20508,0.48437 0.24219,0.10742 0.20703,-0.49023 z m -24.84961,0.56445 -0.24219,0.11133 0.22851,0.48047 0.23829,-0.11524 z m 24.30664,0.62891 -0.25,0.46289 0.23242,0.1289 0.25195,-0.46875 z m -23.71485,0.53711 -0.22656,0.13671 0.27149,0.45313 0.22656,-0.13477 z m 23.06055,0.59765 -0.29102,0.43945 0.21875,0.14649 0.29493,-0.44141 z m -0.75977,1.06641 -0.33398,0.40625 0.20313,0.16992 0.33789,-0.41016 z m -0.86132,0.98633 -0.3711,0.375 0.1875,0.1875 0.375,-0.37891 z m -0.95118,0.89843 -0.40625,0.33399 0.16602,0.20703 0.41016,-0.33789 z m -1.0332,0.80274 -0.43945,0.29101 0.14453,0.22266 0.44141,-0.29492 z m -1.11133,0.69726 -0.46289,0.25 0.125,0.23438 0.4668,-0.25391 z m -1.16797,0.58789 -0.48632,0.20313 0.0977,0.24609 0.49218,-0.20508 z m -1.2246,0.47071 -0.50196,0.1582 0.0781,0.25391 0.50781,-0.16016 z m -1.25977,0.35156 -0.51563,0.10742 0.0508,0.25977 0.51954,-0.10742 z m -5.72266,0.0508 -0.0527,0.25781 0.52344,0.0996 0.0469,-0.25976 z m 4.4336,0.17773 -0.52539,0.0566 0.0273,0.26368 0.52734,-0.0566 z m -3.14258,0.0293 -0.0234,0.26172 0.52734,0.0469 0.0234,-0.26367 z m 1.83594,0.0703 -0.52735,0.006 v 0.26368 l 0.53321,-0.006 z" color="#000" enable-background="accumulate" font-family="sans-serif" font-weight="400" overflow="visible" paint-order="fill markers stroke"/></svg>