<svg xmlns="http://www.w3.org/2000/svg" xmlns:xlink="http://www.w3.org/1999/xlink" width="128" height="128" viewBox="0 0 33.867 33.867"><defs><linearGradient id="a"><stop offset="0" stop-color="#f6f600"/><stop offset="1" stop-color="#f69134"/></linearGradient><linearGradient id="b"><stop offset="0" stop-color="#d90947"/><stop offset="1" stop-color="#ff585b"/></linearGradient><linearGradient id="c" x1="11.367" x2="16.933" y1="32.808" y2="1.058" gradientUnits="userSpaceOnUse" xlink:href="#b"/></defs><path fill="url(#c)" d="m 11.888235,16.748004 c 0,0 -1.784432,7.200308 -2.4510715,10.460199 -0.6666393,3.259891 -0.2211273,5.50357 0.4833352,5.59258 0.7044573,0.08901 2.4202523,-1.016304 3.4522073,-4.867617 1.031956,-3.851312 1.242796,-4.902138 1.242796,-4.902138 0,0 4.073608,5.454492 11.012551,0 C 32.566997,17.576534 30.081404,8.32461 26.939893,4.9069218 23.798383,1.4892328 16.824916,-0.6166153 10.162152,2.8010731 3.4993842,6.2187613 3.7410381,12.950572 3.8100813,14.469545 c 0.06905,1.518972 0.8630554,4.108131 2.8998572,5.523538 2.0368079,1.415405 2.6927268,-1.760628 2.3475048,-2.27846 C 8.7122221,17.196792 4.8112265,14.158847 8.1943921,8.7388755 11.577557,3.318905 19.275986,3.4569933 22.417497,5.8735404 c 3.141512,2.4165474 4.24622,7.9400856 1.96776,12.3243926 -2.278458,4.384307 -8.216261,4.177175 -8.492437,0.379743 -0.276177,-3.797431 2.485591,-5.489016 1.553495,-8.319828 -0.932097,-2.8308125 -5.005705,-1.6570607 -5.799713,1.242796 -0.79401,2.899856 0.241654,5.24736 0.241654,5.24736 z" paint-order="fill markers stroke"/><path d="m 12.692607,17.390697 -0.257281,-0.05713 -0.114724,0.516584 0.257282,0.05713 z m -0.28669,1.290949 -0.25728,-0.05713 -0.114724,0.516583 0.257282,0.05713 z m -0.28703,1.292461 -0.257282,-0.05713 -0.114724,0.516586 0.257282,0.05713 z m -0.28669,1.290949 -0.257282,-0.05713 -0.114724,0.516585 0.257282,0.05713 z m -0.28669,1.290951 -0.25728,-0.05714 -0.114724,0.516584 0.257281,0.05714 z m -0.287031,1.292461 -0.257282,-0.05713 -0.114723,0.516584 0.257281,0.05714 z m -0.28669,1.290949 -0.25728,-0.05714 -0.114724,0.516584 0.257281,0.05713 z m -0.286689,1.29095 -0.257281,-0.05713 -0.114723,0.516584 0.25728,0.05714 z m -0.287031,1.292461 -0.257282,-0.05713 -0.114724,0.516584 0.257282,0.05713 z" style="line-height:normal;font-variant-ligatures:normal;font-variant-position:normal;font-variant-caps:normal;font-variant-numeric:normal;font-variant-alternates:normal;font-variant-east-asian:normal;font-feature-settings:normal;font-variation-settings:normal;text-indent:0;text-align:start;text-decoration-line:none;text-decoration-style:solid;text-decoration-color:#000;text-transform:none;text-orientation:mixed;white-space:normal;shape-padding:0;shape-margin:0;inline-size:0;isolation:auto;mix-blend-mode:normal;solid-color:#000;solid-opacity:1" fill="#8c092f" color="#000" enable-background="accumulate" font-family="sans-serif" font-weight="400" overflow="visible" paint-order="markers fill stroke"/></svg>