<svg xmlns="http://www.w3.org/2000/svg" xmlns:xlink="http://www.w3.org/1999/xlink" width="128" height="128" viewBox="0 0 33.867 33.867"><defs><linearGradient id="a"><stop offset="0" stop-color="#f6f600"/><stop offset="1" stop-color="#f69134"/></linearGradient><linearGradient id="f" x1="17.708" x2="18.8" y1="31.386" y2="6.102" gradientTransform="matrix(1.08726 0 0 1.08726 -2.32 -3.869)" gradientUnits="userSpaceOnUse" xlink:href="#b"/><linearGradient id="b"><stop offset="0" stop-color="#ff5e3f"/><stop offset="1" stop-color="#ffb93f"/></linearGradient><linearGradient id="h" x1="-26.318" x2="-22.482" y1="-27.186" y2="-27.186" gradientTransform="rotate(90 -24.4 -27.186)" gradientUnits="userSpaceOnUse" xlink:href="#c"/><linearGradient id="g" x1="-35.586" x2="-31.75" y1="-27.186" y2="-27.186" gradientTransform="rotate(90 -33.668 -27.186)" gradientUnits="userSpaceOnUse" xlink:href="#c"/><linearGradient id="c"><stop offset="0" stop-color="#eaf2ff"/><stop offset="1" stop-color="#9bbaff"/></linearGradient><linearGradient id="i" x1="16.933" x2="16.933" y1="24.45" y2="28.816" gradientTransform="matrix(1.08726 0 0 1.08726 -2.32 -4.377)" gradientUnits="userSpaceOnUse" xlink:href="#c"/><linearGradient id="d" x1="5.819" x2="3.704" y1="19.248" y2="16.933" gradientTransform="matrix(1.08726 0 0 1.08726 -2.32 -3.869)" gradientUnits="userSpaceOnUse" xlink:href="#b"/><linearGradient id="e" x1="30.163" x2="31.485" y1="19.116" y2="16.933" gradientTransform="matrix(1.08726 0 0 1.08726 -2.32 -3.869)" gradientUnits="userSpaceOnUse" xlink:href="#b"/></defs><path fill="url(#d)" d="M 8.8246385,16.627688 A 3.8835432,3.8835432 0 0 1 4.9410948,20.51123 3.8835432,3.8835432 0 0 1 1.0575512,16.627688 3.8835432,3.8835432 0 0 1 4.9410948,12.744144 3.8835432,3.8835432 0 0 1 8.8246385,16.627688 Z" paint-order="fill markers stroke"/><path fill="url(#e)" d="m 32.809116,16.627688 a 3.8835432,3.8835432 0 0 1 -3.883543,3.883542 3.8835432,3.8835432 0 0 1 -3.883543,-3.883542 3.8835432,3.8835432 0 0 1 3.883543,-3.883544 3.8835432,3.8835432 0 0 1 3.883543,3.883544 z" paint-order="fill markers stroke"/><path fill="url(#f)" d="M 27.972664,3.6106217 A 3.236286,3.236286 0 0 0 25.320145,4.9939082 L 19.564499,3.6746743 a 1.1507946,1.1507946 0 0 0 -0.280363,-0.027533 1.1507946,1.1507946 0 0 0 -1.06584,0.7792948 L 16.090548,10.675389 A 14.491369,9.7987551 0 0 0 2.4419609,20.45729 14.491369,9.7987551 0 0 0 16.933332,30.256045 14.491369,9.7987551 0 0 0 31.424702,20.45729 14.491369,9.7987551 0 0 0 18.507088,10.716965 L 20.06118,6.1507698 24.75829,7.2255995 A 3.236286,3.236286 0 0 0 27.972664,10.083194 3.236286,3.236286 0 0 0 31.20895,6.846908 3.236286,3.236286 0 0 0 27.972664,3.6106217 Z" paint-order="fill markers stroke"/><g fill="#f0f" transform="matrix(1.08726 0 0 1.08726 48.5 48.165)"><path fill="url(#g)" d="m -33.668228,-25.267707 a 1.918229,1.918229 0 0 1 -1.918229,-1.918229 1.918229,1.918229 0 0 1 1.918229,-1.918229 1.918229,1.918229 0 0 1 1.918229,1.918229 1.918229,1.918229 0 0 1 -1.918229,1.918229 z" opacity=".949" paint-order="fill markers stroke"/><path fill="url(#h)" d="m -24.399953,-25.267707 a 1.918229,1.918229 0 0 1 -1.918229,-1.918229 1.918229,1.918229 0 0 1 1.918229,-1.918229 1.918229,1.918229 0 0 1 1.918229,1.918229 1.918229,1.918229 0 0 1 -1.918229,1.918229 z" opacity=".949" paint-order="fill markers stroke"/></g><path style="line-height:normal;font-variant-ligatures:normal;font-variant-position:normal;font-variant-caps:normal;font-variant-numeric:normal;font-variant-alternates:normal;font-variant-east-asian:normal;font-feature-settings:normal;font-variation-settings:normal;text-indent:0;text-align:start;text-decoration-line:none;text-decoration-style:solid;text-decoration-color:#000;text-transform:none;text-orientation:mixed;white-space:normal;shape-padding:0;shape-margin:0;inline-size:0;isolation:auto;mix-blend-mode:normal;solid-color:#000;solid-opacity:1" fill="url(#i)" d="m 12.189327,22.843151 a 1.1508609,1.1508609 0 0 0 -0.900385,0.477798 1.1508609,1.1508609 0 0 0 0.259073,1.605402 c 0,0 4.949852,3.408398 10.743027,0.06371 a 1.1508609,1.1508609 0 0 0 0.420462,-1.571426 1.1508609,1.1508609 0 0 0 -1.571426,-0.420462 c -4.75769,2.746856 -8.243611,0.06371 -8.243611,0.06371 a 1.1508609,1.1508609 0 0 0 -0.70714,-0.218724 z" color="#000" enable-background="accumulate" font-family="sans-serif" font-weight="400" overflow="visible" paint-order="fill markers stroke"/><g transform="translate(-1.076 -1.123)"><path style="line-height:normal;font-variant-ligatures:normal;font-variant-position:normal;font-variant-caps:normal;font-variant-numeric:normal;font-variant-alternates:normal;font-variant-east-asian:normal;font-feature-settings:normal;font-variation-settings:normal;text-indent:0;text-align:start;text-decoration-line:none;text-decoration-style:solid;text-decoration-color:#000;text-transform:none;text-orientation:mixed;white-space:normal;shape-padding:0;shape-margin:0;inline-size:0;isolation:auto;mix-blend-mode:normal;solid-color:#000;solid-opacity:1" fill="#d33634" d="M6.796875 25.288035L6.59375 25.457957 6.9511719 25.860301 7.1425781 25.67866zm.90625.933594l-.1738281.199219.4023437.347656.1699219-.203125zm1.0175781.828125l-.15625.212891.4335938.308594.1503906-.21875zm1.0859375.728516l-.1328125.228515.4589839.265625.13086-.230468zm1.1503904.628906l-.111328.238281.482422.222656.107422-.240234zm1.205078.519531l-.0918.248047.5.179688.08789-.25zm1.244141.408203l-.06836.25586.513671.134765.06445-.257812zm1.277344.294922l-.04492.261719.523437.08594.04102-.261719zm1.298828.177735l-.02344.263672.529297.04102.01953-.263672zM29.221806 25.288035l.203125.169922-.357422.402344-.191406-.181641zm-.90625.933594l.173828.199219-.402344.347656-.169922-.203125zm-1.017578.828125l.15625.212891-.433594.308594-.150391-.21875zm-1.085938.728516l.132813.228515-.458984.265625-.13086-.230468zm-1.15039.628906l.111328.238281-.482422.222656-.107422-.240234zm-1.205078.519531l.0918.248047-.5.179688-.08789-.25zm-1.244141.408203l.06836.25586-.513671.134765-.06445-.257812zm-1.277344.294922l.04492.261719-.523437.08594-.04102-.261719zm-1.298828.177735l.02344.263672-.529297.04102-.01953-.263672z" color="#000" enable-background="accumulate" font-family="sans-serif" font-weight="400" overflow="visible" paint-order="fill markers stroke"/></g></svg>