<svg xmlns="http://www.w3.org/2000/svg" xmlns:xlink="http://www.w3.org/1999/xlink" width="128" height="128" viewBox="0 0 33.867 33.867"><defs><linearGradient id="a"><stop offset="0" stop-color="#f6f600"/><stop offset="1" stop-color="#f69134"/></linearGradient><linearGradient id="b"><stop offset="0" stop-color="#0cc8ef"/><stop offset="1" stop-color="#047afa"/></linearGradient><linearGradient id="d" x1="64" x2="64" y1="4" y2="124" gradientTransform="matrix(.25367 0 0 .25367 .698 .699)" gradientUnits="userSpaceOnUse" xlink:href="#b"/><linearGradient id="e" x1="64.285" x2="64.285" y1="28.145" y2="100.001" gradientUnits="userSpaceOnUse" xlink:href="#c"/><linearGradient id="c"><stop offset="0" stop-color="#f5f8ff"/><stop offset="1" stop-color="#a0c9ff"/></linearGradient></defs><path fill="url(#d)" d="m 8.5463746,1.7136339 a 6.8173806,6.8173806 0 0 0 -6.8173766,6.8173765 6.8173806,6.8173806 0 0 0 0.8600993,3.3145526 15.22019,15.22019 0 0 0 -0.8759536,5.08826 15.22019,15.22019 0 0 0 15.2201893,15.22019 15.22019,15.22019 0 0 0 5.046147,-0.86109 6.8173806,6.8173806 0 0 0 3.356666,0.88388 6.8173806,6.8173806 0 0 0 6.817377,-6.817376 A 6.8173806,6.8173806 0 0 0 31.27856,22.019111 15.22019,15.22019 0 0 0 32.153523,16.933823 15.22019,15.22019 0 0 0 16.933333,1.7136339 15.22019,15.22019 0 0 0 11.872323,2.580174 6.8173806,6.8173806 0 0 0 8.5463746,1.7136339 Z" paint-order="fill markers stroke"/><path style="line-height:normal;font-variant-ligatures:normal;font-variant-position:normal;font-variant-caps:normal;font-variant-numeric:normal;font-variant-alternates:normal;font-variant-east-asian:normal;font-feature-settings:normal;font-variation-settings:normal;text-indent:0;text-align:start;text-decoration-line:none;text-decoration-style:solid;text-decoration-color:#000;text-transform:none;text-orientation:mixed;white-space:normal;shape-padding:0;shape-margin:0;inline-size:0;isolation:auto;mix-blend-mode:normal;solid-color:#000;solid-opacity:1" fill="url(#e)" d="m 64.285156,28.144531 c -8.373636,-0.138758 -14.709145,2.237144 -18.8125,5.9375 -4.376912,3.947047 -5.893565,8.765991 -6.289062,12.107422 -0.356459,3.011554 0.08778,8.292747 3.675781,12.748047 3.565125,4.426895 9.409986,8.025465 18.935547,11.173828 0.0169,0.0059 0.03383,0.01179 0.05078,0.01758 0.04352,0.01435 0.08133,0.02863 0.125,0.04297 8.255943,2.710246 11.80069,5.50579 13.044922,7.050781 1.244232,1.544988 1.660969,4.463491 -1.197266,7.041016 -1.495476,1.348604 -4.328141,2.929526 -11.08789,2.554687 -6.198229,-0.343702 -7.968078,-2.448523 -9.226563,-4.429687 -1.258484,-1.981164 -1.373047,-3.654297 -1.373047,-3.654297 -0.200391,-3.586172 -3.271401,-6.330051 -6.857421,-6.126953 -3.583867,0.204515 -6.32344,3.275495 -6.119141,6.859375 0,0 0.260099,4.990078 3.373047,9.890625 3.112947,4.90055 9.70593,9.895055 19.488281,10.4375 9.220842,0.511305 16.128951,-1.927953 20.505859,-5.875 4.376913,-3.947044 5.893562,-8.764034 6.289063,-12.105469 0.356455,-3.01155 -0.08778,-8.294701 -3.675781,-12.75 C 81.566367,64.633494 76.215114,61.45718 66.03125,57.822266 57.775307,55.112019 54.23056,52.324285 52.986328,50.779297 51.7421,49.234309 51.718669,45.961111 54.183594,43.738281 c 1.495479,-1.348599 4.320332,-2.929526 11.080078,-2.554687 6.198229,0.343702 7.97589,2.448523 9.234375,4.429687 1.258481,1.981164 1.373047,3.654297 1.373047,3.654297 0.204588,3.579835 3.269442,6.317842 6.849609,6.119141 3.583753,-0.200438 6.32669,-3.26777 6.126953,-6.851563 0,0 -0.267912,-4.990074 -3.380859,-9.890625 -3.112948,-4.900547 -9.698118,-9.895053 -19.480469,-10.4375 -0.576302,-0.03196 -1.142929,-0.05325 -1.701172,-0.0625 z" color="#000" enable-background="accumulate" font-family="sans-serif" font-weight="400" overflow="visible" paint-order="fill markers stroke" transform="scale(.26458)"/><path style="line-height:normal;font-variant-ligatures:normal;font-variant-position:normal;font-variant-caps:normal;font-variant-numeric:normal;font-variant-alternates:normal;font-variant-east-asian:normal;font-feature-settings:normal;font-variation-settings:normal;text-indent:0;text-align:start;text-decoration-line:none;text-decoration-style:solid;text-decoration-color:#000;text-transform:none;text-orientation:mixed;white-space:normal;shape-padding:0;shape-margin:0;inline-size:0;isolation:auto;mix-blend-mode:normal;solid-color:#000;solid-opacity:1" fill="#024292" d="m 16.628906,3.5761656 0.002,0.2636719 h 0.527347 l 0.002,-0.265625 z m 1.333985,0.035163 -0.02344,0.2636719 0.523435,0.050782 0.03125,-0.2636718 z m -2.136719,0.00586 -0.53125,0.054688 0.03125,0.2636719 0.523437,-0.054688 z m 3.46289,0.1621094 -0.05078,0.2597656 0.515621,0.10352 0.05664,-0.2597656 z m -4.787109,0.013672 -0.521484,0.107423 0.05664,0.2578125 0.513672,-0.10547 z m 6.087891,0.2851562 -0.07422,0.2539062 0.501953,0.154297 0.08203,-0.2519531 z m -7.388672,0.023437 -0.507813,0.158203 0.08203,0.2519532 0.501953,-0.158204 z m 8.654297,0.40625 -0.101563,0.2441406 0.48633,0.205078 0.105469,-0.2421874 z m 1.214843,0.5546875 -0.125,0.2324219 0.462891,0.251953 0.128906,-0.2304688 z m 1.152344,0.671875 -0.144531,0.2207031 0.433595,0.2968756 0.152343,-0.21875 z m 1.080078,0.7851562 -0.166015,0.2050782 0.404299,0.3359366 0.171875,-0.2011719 z m 1.001954,0.8867188 -0.189454,0.1855469 0.369147,0.3789061 0.189453,-0.1855469 z m 0.902343,0.984375 -0.205078,0.1660156 0.326174,0.4101563 0.210937,-0.1601563 z m 0.802735,1.0664062 -0.220704,0.1464844 0.285159,0.4414067 0.224609,-0.1406252 z m 0.691406,1.1425781 -0.234375,0.123047 0.24023,0.46875 0.236328,-0.117187 z m 0.574219,1.205079 -0.246094,0.101562 0.19336,0.488281 0.246094,-0.09375 z m 0.449218,1.257812 -0.253906,0.07617 0.14258,0.505858 0.25586,-0.07031 z m -25.6054684,0.07422 -0.142581,0.513673 0.2558594,0.06836 0.140621,-0.505847 z m 25.9277344,1.222656 -0.261719,0.04883 0.0918,0.517576 0.261719,-0.04297 z m -26.2402344,0.07617 -0.091797,0.525385 0.2617187,0.04297 0.089844,-0.519531 z m 26.4296874,1.246094 -0.263672,0.02344 0.03912,0.523435 0.263672,-0.01758 z m -26.6132811,0.07617 -0.037114,0.531255 0.2636719,0.01758 0.037114,-0.525397 z m 26.4082031,1.041016 -0.006,0.529297 0.263671,0.0039 0.0079,-0.529297 z m -26.1933594,0.291016 -0.2636718,0.0039 0.01562,0.531245 0.2636718,-0.0098 z m 26.1386714,1.021484 -0.05473,0.521484 0.261719,0.03125 0.05669,-0.529293 z m -26.0585932,0.285156 -0.2617188,0.0293 0.068364,0.529295 0.2617187,-0.03711 z m 25.8789062,1.009766 -0.10936,0.515628 0.259766,0.05664 0.10936,-0.52149 z m -25.6699219,0.283203 -0.2578125,0.05469 0.121094,0.519529 0.2578125,-0.0625 z m 0.3398438,1.263672 -0.2519531,0.08203 0.171875,0.503902 0.25,-0.08789 z M 4.9296875,22.177733 4.6875,22.283202 4.9082025,22.767573 5.1484369,22.656245 Z M 5.5097656,23.347656 5.28125,23.482422 5.5507812,23.9375 5.7792969,23.802734 Z m 0.6992188,1.107422 -0.2128906,0.15625 0.3164062,0.427734 0.2089844,-0.160156 z m 0.8066406,1.033203 -0.1972656,0.175781 0.3554698,0.39454 0.1933594,-0.179688 z m 0.9042969,0.947266 -0.1796875,0.193359 0.3925773,0.357419 0.1757813,-0.197266 z m 0.9941406,0.851562 -0.1601563,0.210938 0.4257811,0.31837 0.15625,-0.214844 z m 1.0742187,0.75 -0.140625,0.22461 0.4550778,0.275385 0.134766,-0.228515 z m 1.1425778,0.640625 -0.117187,0.236328 0.480503,0.228506 0.111328,-0.240234 z m 1.197266,0.521485 -0.08789,0.25 0.498047,0.17578 0.08789,-0.25 z m 8.240234,0.320312 -0.509764,0.13481 0.06445,0.255859 0.513674,-0.13476 z m -6.992187,0.07813 -0.0625,0.25586 0.513672,0.12695 0.0625,-0.257813 z m 5.716797,0.220703 -0.519534,0.08202 0.03711,0.261718 0.525387,-0.08202 z m -4.4375,0.04883 -0.03516,0.261718 0.523438,0.07422 0.03711,-0.261719 z m 3.140625,0.121093 -0.525431,0.02928 0.0098,0.265625 0.531237,-0.03133 z m -1.837891,0.02148 -0.0098,0.263672 0.527343,0.0196 0.01172,-0.263672 z" color="#000" enable-background="accumulate" font-family="sans-serif" font-weight="400" overflow="visible" paint-order="fill markers stroke"/></svg>