<svg xmlns="http://www.w3.org/2000/svg" xmlns:xlink="http://www.w3.org/1999/xlink" width="128" height="128" viewBox="0 0 33.867 33.867"><defs><linearGradient id="a"><stop offset="0" stop-color="#f6f600"/><stop offset="1" stop-color="#f69134"/></linearGradient><linearGradient id="d" x1="66.566" x2="61.081" y1="-3.882" y2="126.579" gradientUnits="userSpaceOnUse" xlink:href="#a"/><linearGradient id="b" x1="2.485" x2="9.055" y1="10.246" y2="17.262" gradientUnits="userSpaceOnUse" xlink:href="#a"/><linearGradient id="c" x1="31.659" x2="25.582" y1="9.985" y2="16.887" gradientUnits="userSpaceOnUse" xlink:href="#a"/></defs><path fill="url(#b)" d="m 3.7041664,12.136328 c 0.501077,-0.669569 1.3875737,-0.72012 2.1130808,-0.304133 l 7.1831848,4.118604 c 0.725506,0.415981 0.202234,2.24925 -0.298844,2.91882 -0.501076,0.66957 -2.112357,1.688619 -2.7160606,1.109876 L 4.0083043,14.249409 C 3.4045999,13.670665 3.2030888,12.805898 3.7041664,12.136328 Z" paint-order="fill markers stroke"/><path fill="url(#c)" d="m 30.162502,12.136328 c -0.501077,-0.669569 -1.387574,-0.72012 -2.113081,-0.304133 l -7.183185,4.118604 c -0.725506,0.415981 -0.202234,2.24925 0.298844,2.91882 0.501076,0.66957 2.112357,1.688619 2.716061,1.109876 l 5.977223,-5.730086 c 0.603704,-0.578744 0.805216,-1.443511 0.304138,-2.113081 z" paint-order="fill markers stroke"/><path fill="url(#d)" d="M 64,4 C 47.310751,4 29.875,16.728643 29.875,33.417893 l 0,37.127029 c 0,11.478689 -9.514703,22.68381 -22.65625,26.205078 -3.7625673,0.913671 -4.8236188,6.09986 0,8.25 3.679229,1.86341 10.200521,3.23925 15.117188,3.02734 l 1.976562,4.6836 c 1.07496,2.75694 2.137541,2.88852 5.779297,2.54687 C 45.782236,111.05357 43.069066,124 64,124 c 20.930933,0 18.217759,-12.94643 33.908203,-8.74219 3.641757,0.34165 4.704337,0.21007 5.779297,-2.54687 l 1.97656,-4.6836 c 4.91667,0.21191 11.43796,-1.16393 15.11719,-3.02734 4.82362,-2.15014 3.76257,-7.336329 0,-8.25 C 107.6397,93.228731 98.125,82.023612 98.125,70.544922 l 0,-37.127029 C 98.125,16.728643 80.689249,4 64,4 Z" paint-order="fill markers stroke" transform="scale(.26458)"/><path style="line-height:normal;font-variant-ligatures:normal;font-variant-position:normal;font-variant-caps:normal;font-variant-numeric:normal;font-variant-alternates:normal;font-variant-east-asian:normal;font-feature-settings:normal;font-variation-settings:normal;text-indent:0;text-align:start;text-decoration-line:none;text-decoration-style:solid;text-decoration-color:#000;text-transform:none;text-orientation:mixed;white-space:normal;shape-padding:0;shape-margin:0;inline-size:0;isolation:auto;mix-blend-mode:normal;solid-color:#000;solid-opacity:1" fill="none" d="m 16.933333,2.5793511 c -3.99262,0 -8.1638272,3.0451119 -8.1638272,7.0377318 v 8.8820121 c 0,2.746081 -2.2762312,5.426716 -5.4201234,6.26912 -0.9001304,0.21858 -1.1539689,1.459288 0,1.973673 0.8801931,0.445789 2.4403016,0.774935 3.6165308,0.724239 l 0.4728589,1.120472 c 0.2571659,0.659551 0.5113704,0.691029 1.3825988,0.609296 3.7536711,-1.005794 3.1045911,2.09142 8.1119621,2.09142 5.007371,0 4.35829,-3.097214 8.111962,-2.09142 0.871229,0.08173 1.125433,0.05025 1.382599,-0.609296 l 0.472859,-1.120472 c 1.17623,0.0507 2.736338,-0.27845 3.616531,-0.724239 1.153969,-0.514385 0.900131,-1.755093 0,-1.973673 -3.143893,-0.842404 -5.420124,-3.523038 -5.420124,-6.26912 V 9.6170829 c 0,-3.9926199 -4.171207,-7.0377318 -8.163827,-7.0377318 z" color="#000" enable-background="accumulate" font-family="sans-serif" font-weight="400" overflow="visible" paint-order="fill markers stroke"/><path style="line-height:normal;font-variant-ligatures:normal;font-variant-position:normal;font-variant-caps:normal;font-variant-numeric:normal;font-variant-alternates:normal;font-variant-east-asian:normal;font-feature-settings:normal;font-variation-settings:normal;text-indent:0;text-align:start;text-decoration-line:none;text-decoration-style:solid;text-decoration-color:#000;text-transform:none;text-orientation:mixed;white-space:normal;shape-padding:0;shape-margin:0;inline-size:0;isolation:auto;mix-blend-mode:normal;solid-color:#000;solid-opacity:1" fill="#a02c2c" d="m 9.921875,28.474223 -0.5351562,0.06253 0.039062,0.261718 0.515625,-0.06058 z m 13.501953,0 -0.535156,0.0918 0.05859,0.257812 0.507812,-0.08595 z m 0.826172,0.0293 -0.03711,0.261718 0.511718,0.09179 0.05469,-0.259765 z m -13.498047,0.01172 -0.05859,0.257813 0.496094,0.13868 0.08594,-0.25 z m 11.367188,0.367185 -0.455083,0.28124 0.142579,0.222656 0.447262,-0.27539 z m -10.111329,0.158203 -0.142578,0.222656 0.435547,0.291011 0.150391,-0.216797 z m 9.001954,0.574219 -0.443363,0.2832 0.138672,0.224609 0.449216,-0.285163 z m -7.90625,0.160156 -0.138672,0.224609 0.464844,0.269529 0.125,-0.232422 z m 6.773437,0.466797 -0.490234,0.18164 0.08594,0.25 0.503906,-0.18555 z m -5.615234,0.107422 -0.08789,0.248047 0.511719,0.16211 0.07422,-0.253906 z m 4.378906,0.263672 -0.521484,0.08007 0.03711,0.261718 0.527344,-0.08008 z m -3.123047,0.04687 -0.03711,0.261718 0.533203,0.0625 0.02344,-0.263671 z m 1.826172,0.08984 -0.527345,0.0099 0.002,0.263672 0.533199,-0.0079 z" color="#000" enable-background="accumulate" font-family="sans-serif" font-weight="400" overflow="visible" paint-order="fill markers stroke"/></svg>