<svg xmlns="http://www.w3.org/2000/svg" xmlns:xlink="http://www.w3.org/1999/xlink" width="128" height="128" viewBox="0 0 33.867 33.867"><defs><linearGradient id="a"><stop offset="0" stop-color="#f6f600"/><stop offset="1" stop-color="#f69134"/></linearGradient><linearGradient id="b"><stop offset="0" stop-color="#ff5e3f"/><stop offset="1" stop-color="#ffb93f"/></linearGradient><linearGradient id="c" x1="89" x2="89" y1="109.5" y2="29.25" gradientUnits="userSpaceOnUse" xlink:href="#b"/><linearGradient id="d" x1="15.341" x2="14.875" y1="28.537" y2="7.536" gradientTransform="matrix(.63145 0 0 1 3.848 .102)" gradientUnits="userSpaceOnUse" xlink:href="#b"/><linearGradient id="e" x1="15.341" x2="14.875" y1="28.537" y2="7.536" gradientTransform="matrix(.63145 0 0 1 .27 .102)" gradientUnits="userSpaceOnUse" xlink:href="#b"/><linearGradient id="f" x1="15.341" x2="14.875" y1="28.537" y2="7.536" gradientTransform="matrix(.63145 0 0 1 -3.566 .102)" gradientUnits="userSpaceOnUse" xlink:href="#b"/><linearGradient id="g" x1="15.341" x2="14.875" y1="28.537" y2="7.536" gradientTransform="matrix(.63145 0 0 1 -7.395 .102)" gradientUnits="userSpaceOnUse" xlink:href="#b"/></defs><g transform="translate(0 -1.058)"><path fill="url(#c)" d="M 69.281249,108.75 H 105.875 C 115.91625,108.75 124,100.66625 124,90.625 124,82.616482 118.85195,75.867151 111.67578,73.457031 113.21181,69.526986 114.00008,65.344556 114,61.125 114,42.416354 98.833646,27.249999 80.125,27.25 76.664626,27.250354 73.237849,27.780803 69.960994,28.81187 67.904215,29.455562 64,31.916711 64,39.067649 V 103.625 c 0,2.66831 1.731854,5.125 5.281249,5.125 z" paint-order="fill markers stroke" transform="scale(.26458)"/><path d="m 17.267987,26.876279 v 0.26355 h 0.52917 v -0.26355 z m 1.32395,0 v 0.26355 h 0.52917 v -0.26355 z m 1.3224,0 v 0.26355 h 0.52917 v -0.26355 z m 1.3224,0 v 0.26355 h 0.52917 v -0.26355 z m 1.32395,0 v 0.26355 h 0.52917 v -0.26355 z m 1.3224,0 v 0.26355 h 0.52917 v -0.26355 z m 1.3224,0 v 0.26355 h 0.52917 v -0.26355 z m 1.32395,0 v 0.26355 h 0.52917 v -0.26355 z m 1.3224,0 v 0.26355 h 0.52917 v -0.26355 z m 1.3224,0 v 0.26355 h 0.52917 v -0.26355 z m 1.32395,0 v 0.26355 h 0.52917 v -0.26355 z" style="line-height:normal;font-variant-ligatures:normal;font-variant-position:normal;font-variant-caps:normal;font-variant-numeric:normal;font-variant-alternates:normal;font-variant-east-asian:normal;font-feature-settings:normal;font-variation-settings:normal;text-indent:0;text-align:start;text-decoration-line:none;text-decoration-style:solid;text-decoration-color:#000;text-transform:none;text-orientation:mixed;white-space:normal;shape-padding:0;shape-margin:0;inline-size:0;isolation:auto;mix-blend-mode:normal;solid-color:#000;solid-opacity:1" fill="#d33634" color="#000" enable-background="accumulate" font-family="sans-serif" font-weight="400" overflow="visible" paint-order="markers fill stroke"/><path fill="url(#d)" d="m 13.624865,9.5623703 c 0.507538,0 0.916133,0.6470757 0.916133,1.4508417 0,0 0.392558,5.108205 0.395213,7.827531 0.0027,2.719326 -0.395213,8.481852 -0.395213,8.481852 -0.02205,0.803464 -0.408595,1.450842 -0.916133,1.450842 -0.507536,0 -0.916131,-0.647075 -0.916131,-1.450842 0,0 -0.378206,-5.696995 -0.374177,-8.418085 0.004,-2.721091 0.374177,-7.891298 0.374177,-7.891298 0.03807,-0.802864 0.408595,-1.4508417 0.916131,-1.4508417 z" paint-order="fill markers stroke"/><path fill="url(#e)" d="m 10.046794,12.902735 c 0.507538,0 0.916133,0.647075 0.916133,1.450841 0,0 0.392558,3.68607 0.395213,6.405396 0.0027,2.719326 -0.395213,6.563623 -0.395213,6.563623 -0.02205,0.803464 -0.408595,1.450842 -0.916133,1.450842 -0.507536,0 -0.916131,-0.647075 -0.916131,-1.450842 0,0 -0.378206,-3.778766 -0.374177,-6.499856 0.004,-2.721091 0.374177,-6.469163 0.374177,-6.469163 0.03807,-0.802864 0.408595,-1.450841 0.916131,-1.450841 z" paint-order="fill markers stroke"/><path fill="url(#f)" d="m 6.2103358,13.696485 c 0.507538,0 0.916133,0.647075 0.916133,1.450841 0,0 0.392558,3.68607 0.395213,6.405396 0.0027,2.719326 -0.395213,5.769873 -0.395213,5.769873 -0.02205,0.803464 -0.408595,1.450842 -0.916133,1.450842 -0.507536,0 -0.916131,-0.647075 -0.916131,-1.450842 0,0 -0.378206,-2.985016 -0.374177,-5.706106 0.004,-2.721091 0.374177,-6.469163 0.374177,-6.469163 0.03807,-0.802864 0.408595,-1.450841 0.916131,-1.450841 z" paint-order="fill markers stroke"/><path fill="url(#g)" d="m 2.3812504,19.715756 c 0.507538,0 0.916133,0.647075 0.916133,1.450841 0,0 0.362605,2.031984 0.362605,3.16425 0,1.132266 -0.362605,2.991748 -0.362605,2.991748 -0.02205,0.803464 -0.408595,1.450842 -0.916133,1.450842 -0.507536,0 -0.916131,-0.647075 -0.916131,-1.450842 0,0 -0.4087607,-1.59595 -0.406785,-2.927981 0.00198,-1.332031 0.406785,-3.228017 0.406785,-3.228017 0.03807,-0.802864 0.408595,-1.450841 0.916131,-1.450841 z" paint-order="fill markers stroke"/></g></svg>