<svg xmlns="http://www.w3.org/2000/svg" xmlns:xlink="http://www.w3.org/1999/xlink" width="128" height="128" viewBox="0 0 33.867 33.867"><defs><linearGradient id="a"><stop offset="0" stop-color="#f6f600"/><stop offset="1" stop-color="#f69134"/></linearGradient><linearGradient id="b"><stop offset="0" stop-color="#00ce4e"/><stop offset="1" stop-color="#a7e890"/></linearGradient><linearGradient id="c"><stop offset="0" stop-color="#bca6ae"/><stop offset="1" stop-color="#534666"/></linearGradient><linearGradient id="d" x1="1.058" x2="32.808" y1="16.933" y2="16.933" gradientTransform="rotate(-90 16.933 16.933)" gradientUnits="userSpaceOnUse" xlink:href="#b"/><linearGradient id="e" x1="3.646" x2="24.774" y1="8.967" y2="16.505" gradientUnits="userSpaceOnUse" xlink:href="#c"/><linearGradient id="f" x1="7.253" x2="25.411" y1="15.147" y2="22.536" gradientUnits="userSpaceOnUse" xlink:href="#c"/><linearGradient id="g" x1="9.913" x2="20.444" y1="20.34" y2="25.19" gradientUnits="userSpaceOnUse" xlink:href="#c"/></defs><path fill="url(#d)" d="M 16.933332,1.0583315 A 15.875001,15.875001 0 0 1 32.808333,16.933332 15.875001,15.875001 0 0 1 16.933332,32.808333 15.875001,15.875001 0 0 1 1.0583315,16.933332 15.875001,15.875001 0 0 1 16.933332,1.0583315 Z" paint-order="fill markers stroke"/><path style="line-height:normal;font-variant-ligatures:normal;font-variant-position:normal;font-variant-caps:normal;font-variant-numeric:normal;font-variant-alternates:normal;font-variant-east-asian:normal;font-feature-settings:normal;font-variation-settings:normal;text-indent:0;text-align:start;text-decoration-line:none;text-decoration-style:solid;text-decoration-color:#000;text-transform:none;text-orientation:mixed;white-space:normal;shape-padding:0;shape-margin:0;inline-size:0;isolation:auto;mix-blend-mode:normal;solid-color:#000;solid-opacity:1" fill="url(#e)" d="M 14.269531 9.2910156 C 10.510914 9.4418564 7.8886719 10.271484 7.8886719 10.271484 A 1.984375 1.984375 0 0 0 6.5683594 12.748047 A 1.984375 1.984375 0 0 0 9.0429688 14.070312 C 9.0429688 14.070312 18.139977 11.435665 25.441406 15.792969 A 1.984375 1.984375 0 0 0 28.162109 15.105469 A 1.984375 1.984375 0 0 0 27.474609 12.384766 C 22.923241 9.6686264 18.028149 9.1401749 14.269531 9.2910156 z " color="#000" enable-background="accumulate" font-family="sans-serif" font-weight="400" overflow="visible" paint-order="fill markers stroke"/><path style="line-height:normal;font-variant-ligatures:normal;font-variant-position:normal;font-variant-caps:normal;font-variant-numeric:normal;font-variant-alternates:normal;font-variant-east-asian:normal;font-feature-settings:normal;font-variation-settings:normal;text-indent:0;text-align:start;text-decoration-line:none;text-decoration-style:solid;text-decoration-color:#000;text-transform:none;text-orientation:mixed;white-space:normal;shape-padding:0;shape-margin:0;inline-size:0;isolation:auto;mix-blend-mode:normal;solid-color:#000;solid-opacity:1" fill="url(#f)" d="M 14.34375 15.681641 C 11.219117 15.807039 9.0410156 16.498047 9.0410156 16.498047 A 1.64966 1.64966 0 0 0 7.9433594 18.556641 A 1.64966 1.64966 0 0 0 10 19.654297 C 10 19.654297 17.56295 17.465554 23.632812 21.087891 A 1.64966 1.64966 0 0 0 25.894531 20.515625 A 1.64966 1.64966 0 0 0 25.324219 18.253906 C 21.540551 15.995912 17.468383 15.556243 14.34375 15.681641 z " color="#000" enable-background="accumulate" font-family="sans-serif" font-weight="400" overflow="visible" paint-order="fill markers stroke"/><path style="line-height:normal;font-variant-ligatures:normal;font-variant-position:normal;font-variant-caps:normal;font-variant-numeric:normal;font-variant-alternates:normal;font-variant-east-asian:normal;font-feature-settings:normal;font-variation-settings:normal;text-indent:0;text-align:start;text-decoration-line:none;text-decoration-style:solid;text-decoration-color:#000;text-transform:none;text-orientation:mixed;white-space:normal;shape-padding:0;shape-margin:0;inline-size:0;isolation:auto;mix-blend-mode:normal;solid-color:#000;solid-opacity:1" fill="url(#g)" d="M 14.642578 21.386719 C 12.491563 21.473043 10.992188 21.947266 10.992188 21.947266 A 1.135635 1.135635 0 0 0 10.236328 23.365234 A 1.135635 1.135635 0 0 0 11.652344 24.121094 C 11.652344 24.121094 16.85858 22.613784 21.037109 25.107422 A 1.135635 1.135635 0 0 0 22.59375 24.714844 A 1.135635 1.135635 0 0 0 22.201172 23.15625 C 19.596473 21.601833 16.793594 21.300394 14.642578 21.386719 z " color="#000" enable-background="accumulate" font-family="sans-serif" font-weight="400" overflow="visible" paint-order="fill markers stroke"/><path style="line-height:normal;font-variant-ligatures:normal;font-variant-position:normal;font-variant-caps:normal;font-variant-numeric:normal;font-variant-alternates:normal;font-variant-east-asian:normal;font-feature-settings:normal;font-variation-settings:normal;text-indent:0;text-align:start;text-decoration-line:none;text-decoration-style:solid;text-decoration-color:#000;text-transform:none;text-orientation:mixed;white-space:normal;shape-padding:0;shape-margin:0;inline-size:0;isolation:auto;mix-blend-mode:normal;solid-color:#000;solid-opacity:1" fill="#1e9a4a" d="m 16.667969,3.3105469 0.0039,0.2636719 0.65625,0.00195 0.0039,-0.2636719 z m -0.802735,0.037109 -0.529296,0.052734 0.0293,0.2636719 0.523438,-0.052734 z m 2.269532,0.011719 -0.02344,0.2636719 0.521484,0.054687 0.03125,-0.2617188 z m -3.59375,0.15625 -0.523438,0.1054688 0.05664,0.2578124 0.515625,-0.1035156 z m 4.916015,0.025391 -0.04883,0.2597656 0.513672,0.1054688 0.05664,-0.2578125 z m -6.21875,0.2714844 -0.509765,0.15625 0.08203,0.2519531 0.503906,-0.1542969 z m 7.517578,0.039063 -0.07422,0.2539063 0.501953,0.15625 0.08008,-0.2519532 z m -8.783203,0.3867187 -0.492187,0.2050782 0.105469,0.2421875 0.486328,-0.203125 z m 10.044922,0.048828 -0.09961,0.2460937 0.484375,0.2050781 0.105468,-0.2421874 z m -11.263672,0.4980468 -0.46875,0.2519532 0.128906,0.2304687 0.462891,-0.2480469 z m 12.476563,0.0625 -0.123047,0.2324219 0.460937,0.2519531 0.128907,-0.2304687 z M 9.5957031,5.4492188 9.1542969,5.7460938 9.3046875,5.9628906 9.7402344,5.6699219 Z m 14.7871089,0.072266 -0.146484,0.2226562 0.435547,0.2949219 0.150391,-0.2167969 z M 8.5078125,6.2226562 8.0957031,6.5605469 l 0.171875,0.203125 0.40625,-0.3339844 z m 16.9550785,0.083984 -0.166016,0.2070313 0.404297,0.3359375 0.169922,-0.203125 z M 7.5,7.0996094 7.125,7.4765625 7.3125,7.6601562 7.6855469,7.2890625 Z m 18.960938,0.09375 -0.183594,0.1894531 0.36914,0.3730469 0.189454,-0.1855469 z M 6.5839844,8.0703125 6.2460938,8.4804688 6.4511719,8.6464844 6.7851562,8.2402344 Z M 27.373047,8.171875 27.167969,8.3378906 27.5,8.75 27.705078,8.5839844 Z M 5.765625,9.125 5.46875,9.5664062 5.6894531,9.7109375 5.9824219,9.2753906 Z M 28.181641,9.2363281 27.958984,9.3808594 28.25,9.8222656 28.472656,9.6777344 Z m -23.1269535,1.0175779 -0.2539063,0.46875 0.234375,0.123047 0.25,-0.462891 z m 23.8261715,0.119141 -0.234375,0.123047 0.248047,0.46875 0.232422,-0.125 z M 4.4570312,11.449219 4.25,11.939453 l 0.2460938,0.09961 0.203125,-0.484374 z m 25.0097658,0.123047 -0.246094,0.101562 0.197266,0.488281 0.246093,-0.0957 z m -25.4863282,1.123046 -0.1582032,0.509766 0.2539063,0.07422 0.1542969,-0.501953 z m 25.9511722,0.13086 -0.253907,0.07422 0.146485,0.505859 0.255859,-0.07031 z m -26.3046879,1.158203 -0.1054687,0.521484 0.2617187,0.04883 0.1035157,-0.513672 z m 26.6425779,0.132813 -0.259765,0.04883 0.09961,0.521484 0.259766,-0.05078 z m -26.8652341,1.183593 -0.052734,0.529297 0.2636719,0.02344 0.052734,-0.523438 z m 27.0761721,0.134766 -0.263672,0.02344 0.04687,0.527344 0.263672,-0.02344 z m -27.1699221,1.197265 -0.00195,0.533204 0.265625,-0.0039 v -0.52539 z m 27.2480471,0.132813 -0.265625,0.0039 -0.002,0.525391 0.263672,0.0039 z m -26.949219,1.179687 -0.2636719,0.02344 0.050781,0.529297 0.2636718,-0.0293 z m 26.636719,0.132813 -0.05469,0.523437 0.263672,0.0293 0.05469,-0.529297 z m -26.4765628,1.166016 -0.2597656,0.05078 0.1035156,0.521484 0.2578126,-0.05664 z M 30.072266,19.375 l -0.105469,0.515625 0.257812,0.05664 0.107422,-0.521485 z m -26.0156254,1.146484 -0.2519531,0.07617 0.1503906,0.50586 0.2539063,-0.07422 z m 25.7148434,0.128907 -0.15625,0.501953 0.251954,0.08203 0.158203,-0.509766 z m -25.3007809,1.113281 -0.2460937,0.101562 0.2011718,0.488282 0.2441407,-0.09961 z m 24.8749999,0.125 -0.205078,0.484375 0.244141,0.105469 0.207031,-0.490235 z m -24.3417968,1.072266 -0.234375,0.123046 0.2519532,0.46875 0.2304687,-0.128906 z m 23.7968748,0.117187 -0.251953,0.462891 0.232422,0.128906 0.253906,-0.46875 z m -23.1484372,1.019531 -0.2207032,0.146485 0.2949219,0.441406 0.2167969,-0.150391 z m 22.4882812,0.111328 -0.294922,0.435547 0.21875,0.152344 0.298828,-0.441406 z M 6.4082031,25.167969 6.203125,25.333984 6.5390625,25.744141 6.7421875,25.574219 Z M 27.375,25.271484 27.039062,25.675781 27.240234,25.847656 27.580078,25.4375 Z M 7.265625,26.158203 7.0761719,26.341797 7.453125,26.71875 7.6367188,26.53125 Z m 19.242187,0.0957 -0.373046,0.369141 0.183593,0.189453 0.378907,-0.375 z m -18.2929682,0.806641 -0.1699219,0.201172 0.4101562,0.339843 0.1660157,-0.207031 z m 17.3339842,0.08594 -0.40625,0.332032 0.166016,0.207031 0.412109,-0.337891 z m -16.3007811,0.71875 -0.1503907,0.216797 0.4414063,0.298828 0.1445313,-0.220703 z m 15.2656251,0.07617 -0.44336,0.291016 0.146485,0.220703 0.441406,-0.291016 z m -14.158203,0.625 -0.128907,0.230469 0.466797,0.253906 0.123047,-0.234375 z m 13.044922,0.06445 -0.46875,0.248047 0.123047,0.234375 0.46875,-0.248047 z m -11.876953,0.523438 -0.105469,0.242187 0.490234,0.207032 0.101563,-0.244141 z m 10.701171,0.05469 -0.490234,0.199219 0.09961,0.246094 0.490235,-0.201172 z m -9.478515,0.416016 -0.08203,0.251953 0.509766,0.158203 0.07422,-0.253906 z m 8.251953,0.04297 -0.507813,0.15039 0.07617,0.253907 0.50586,-0.150391 z m -6.990235,0.304687 -0.05664,0.259766 0.523437,0.105469 0.04883,-0.259766 z m 5.72461,0.03125 -0.519531,0.09961 0.04883,0.259765 0.519531,-0.09961 z m -4.433594,0.191406 -0.03125,0.263672 0.53125,0.05273 0.02148,-0.261719 z m 3.136719,0.01563 -0.523438,0.05078 0.02344,0.261719 0.53125,-0.04883 z m -1.832031,0.08008 -0.0039,0.265625 h 0.533203 l -0.0039,-0.263672 z" color="#000" enable-background="accumulate" font-family="sans-serif" font-weight="400" overflow="visible" paint-order="fill markers stroke"/></svg>