<svg xmlns="http://www.w3.org/2000/svg" xmlns:xlink="http://www.w3.org/1999/xlink" width="128" height="128" viewBox="0 0 33.867 33.867"><defs><linearGradient id="b"><stop offset="0" stop-color="#f40a1b"/><stop offset="1" stop-color="#ff585b"/></linearGradient><linearGradient id="c"><stop offset="0" stop-color="#bca6ae"/><stop offset="1" stop-color="#322a3d"/></linearGradient><linearGradient id="d"><stop offset="0" stop-color="#00fdff"/><stop offset="1" stop-color="#00d4ed"/></linearGradient><linearGradient id="a"><stop offset="0" stop-color="#f6f600"/><stop offset="1" stop-color="#f69134"/></linearGradient><linearGradient id="e" x1="16.933" x2="26.55" y1="31.485" y2="10.831" gradientUnits="userSpaceOnUse" xlink:href="#b"/><linearGradient id="g" x1="85.282" x2="64" y1="-17.644" y2="124" gradientUnits="userSpaceOnUse" xlink:href="#c"/><linearGradient id="f" x1="16.933" x2="12.694" y1="1.058" y2="31.485" gradientUnits="userSpaceOnUse" xlink:href="#d"/></defs><path style="line-height:normal;font-variant-ligatures:normal;font-variant-position:normal;font-variant-caps:normal;font-variant-numeric:normal;font-variant-alternates:normal;font-variant-east-asian:normal;font-feature-settings:normal;font-variation-settings:normal;text-indent:0;text-align:start;text-decoration-line:none;text-decoration-style:solid;text-decoration-color:#000;text-transform:none;text-orientation:mixed;white-space:normal;shape-padding:0;shape-margin:0;inline-size:0;isolation:auto;mix-blend-mode:normal;solid-color:#000;solid-opacity:1" fill="url(#e)" d="m 23.292707,2.080708 -5.118625,0.00149 v 21.131956 c 0,1.819208 -1.086068,3.442016 -2.766797,4.138197 -1.680732,0.696181 -3.594268,0.314947 -4.880643,-0.97143 C 9.2402671,25.094548 8.8590321,23.179008 9.5552129,21.498279 10.251394,19.817549 11.874201,18.733982 13.69341,18.733982 h 1.655378 V 13.614857 H 13.69341 c -3.8752026,0 -7.3848746,2.345847 -8.8678502,5.926066 -1.4829758,3.580219 -0.6598344,7.720552 2.0803475,10.460733 2.7401813,2.740182 6.8810137,3.563323 10.4612327,2.080347 3.580221,-1.482976 5.925567,-4.992647 5.925567,-8.867849 V 11.496513 c 1.393643,0.830338 3.039939,1.439894 5.064628,1.439894 h 2.558311 V 7.8157876 h -2.558311 c -2.878705,0 -3.659181,-1.1708691 -4.342682,-2.6568054 C 23.331802,3.6744592 23.292707,2.080708 23.292707,2.080708 Z" color="#000" enable-background="accumulate" font-family="sans-serif" font-weight="400" overflow="visible" paint-order="fill markers stroke"/><path style="line-height:normal;font-variant-ligatures:normal;font-variant-position:normal;font-variant-caps:normal;font-variant-numeric:normal;font-variant-alternates:normal;font-variant-east-asian:normal;font-feature-settings:normal;font-variation-settings:normal;text-indent:0;text-align:start;text-decoration-line:none;text-decoration-style:solid;text-decoration-color:#000;text-transform:none;text-orientation:mixed;white-space:normal;shape-padding:0;shape-margin:0;inline-size:0;isolation:auto;mix-blend-mode:normal;solid-color:#000;solid-opacity:1" fill="url(#f)" d="m 22.268781,1.056783 -5.118625,0.0015 v 21.131951 c 0,1.819208 -1.086068,3.442016 -2.766797,4.138196 -1.680731,0.696183 -3.594267,0.314947 -4.8806423,-0.971429 C 8.2163422,24.070627 7.3224768,22.155089 8.0186577,20.47436 8.7148389,18.793629 10.87899,17.090454 12.669484,17.412406 l 1.655379,0.297656 v -5.119125 h -1.655379 c -3.875202,0 -7.3848737,2.345846 -8.8678492,5.926066 -1.4829757,3.580219 -0.6598344,7.720551 2.0803474,10.460733 2.7401814,2.740182 6.3665188,2.955285 9.9467388,1.472309 3.58022,-1.482976 5.422546,-4.762769 5.598161,-8.633988 L 21.988148,9.4436043 c 1.393643,0.8303397 3.322203,1.8510007 5.328725,2.1216167 l 2.574848,0.347266 -0.810291,-2.5363153 0.810284,-0.9968383 7e-6,-1.5874707 h -2.558312 c -2.878705,0 -3.65918,-1.1708692 -4.342681,-2.6568054 C 22.307876,2.6505343 22.268781,1.056783 22.268781,1.056783 Z" color="#000" enable-background="accumulate" font-family="sans-serif" font-weight="400" overflow="visible" paint-order="fill markers stroke"/><path style="line-height:normal;font-variant-ligatures:normal;font-variant-position:normal;font-variant-caps:normal;font-variant-numeric:normal;font-variant-alternates:normal;font-variant-east-asian:normal;font-feature-settings:normal;font-variation-settings:normal;text-indent:0;text-align:start;text-decoration-line:none;text-decoration-style:solid;text-decoration-color:#000;text-transform:none;text-orientation:mixed;white-space:normal;shape-padding:0;shape-margin:0;inline-size:0;isolation:auto;mix-blend-mode:normal;solid-color:#000;solid-opacity:1" fill="url(#g)" d="M 85.023438 9.9960938 L 70.820312 10 L 70.820312 89.869141 C 70.820312 96.744887 66.715643 102.87853 60.363281 105.50977 C 54.010912 108.14101 46.777909 106.69978 41.916016 101.83789 C 40.88581 100.80769 40.019546 99.665799 39.302734 98.453125 C 38.089187 97.735903 36.947286 96.869162 35.916016 95.837891 C 31.054128 90.976005 29.612906 83.735174 32.244141 77.382812 C 34.875377 71.030443 41.009015 66.935547 47.884766 66.935547 L 54.140625 66.935547 L 54.140625 53.587891 L 53.884766 53.587891 C 39.238329 53.587891 25.974087 62.454788 20.369141 75.986328 C 15.311905 88.195571 17.352044 102.12595 25.40625 112.33984 C 35.621127 120.39899 49.557284 122.44325 61.769531 117.38477 C 75.301071 111.77982 84.166016 98.51557 84.166016 83.869141 L 84.166016 39.582031 C 89.433328 42.720324 95.654277 45.023437 103.30664 45.023438 L 112.97656 45.023438 L 112.97656 31.669922 L 109.30664 31.669922 C 100.01799 31.669922 96.513267 28.440094 94.078125 24.001953 C 90.288339 22.215879 88.517891 19.158103 86.894531 15.628906 C 86.011239 13.708626 85.428352 11.755058 85.023438 9.9960938 z " color="#000" enable-background="accumulate" font-family="sans-serif" font-weight="400" overflow="visible" paint-order="fill markers stroke" transform="scale(.26458)"/><path d="m 19.819937,3.2538714 h -0.26355 v 0.52917 h 0.26355 z m 0,1.3224 h -0.26355 v 0.52917 h 0.26355 z m 0,1.32395 h -0.26355 v 0.52917 h 0.26355 z m 0,1.3224004 h -0.26355 v 0.52917 h 0.26355 z m 0,1.3224 h -0.26355 v 0.52917 h 0.26355 z m 0,1.32395 h -0.26355 v 0.5291692 h 0.26355 z m 0,1.3224002 h -0.26355 v 0.52917 h 0.26355 z m 0,1.3224 h -0.26355 v 0.52917 h 0.26355 z m 0,1.32395 h -0.26355 v 0.52917 h 0.26355 z m 0,1.3224 h -0.26355 v 0.52917 h 0.26355 z m 0,1.3224 h -0.26355 v 0.52917 h 0.26355 z m 0,1.32395 h -0.26355 v 0.52917 h 0.26355 z" style="line-height:normal;font-variant-ligatures:normal;font-variant-position:normal;font-variant-caps:normal;font-variant-numeric:normal;font-variant-alternates:normal;font-variant-east-asian:normal;font-feature-settings:normal;font-variation-settings:normal;text-indent:0;text-align:start;text-decoration-line:none;text-decoration-style:solid;text-decoration-color:#000;text-transform:none;text-orientation:mixed;white-space:normal;shape-padding:0;shape-margin:0;inline-size:0;isolation:auto;mix-blend-mode:normal;solid-color:#000;solid-opacity:1" fill="#453a4b" color="#000" enable-background="accumulate" font-family="sans-serif" font-weight="400" overflow="visible" paint-order="markers fill stroke"/></svg>