<svg xmlns="http://www.w3.org/2000/svg" xmlns:xlink="http://www.w3.org/1999/xlink" width="128" height="128" viewBox="0 0 33.867 33.867"><defs><linearGradient id="b"><stop offset="0" stop-color="red"/><stop offset="1" stop-color="red" stop-opacity="0"/></linearGradient><linearGradient id="a"><stop offset="0" stop-color="#f6f600"/><stop offset="1" stop-color="#f69134"/></linearGradient><linearGradient id="c"><stop offset="0" stop-color="#bca6ae"/><stop offset="1" stop-color="#534666"/></linearGradient><linearGradient id="d" x1="8.992" x2="13.709" y1="16.198" y2="16.198" gradientTransform="rotate(180 15.844 13.667)" gradientUnits="userSpaceOnUse" xlink:href="#c"/><linearGradient id="e" x1="15.249" x2="18.142" y1="24.663" y2="-4.151" gradientTransform="matrix(1 0 0 -1 -1.209 27.335)" gradientUnits="userSpaceOnUse" xlink:href="#c"/></defs><g transform="translate(1.694)"><path fill="url(#d)" d="m 22.696478,13.648298 c 0.879471,0 1.587501,-0.70802 1.587501,-1.5875 V 8.7168184 c 0,-0.87948 -0.708073,-1.5787801 -1.587501,-1.5875 h -4.71711 v 6.5189796 z" paint-order="fill markers stroke"/><path fill="url(#e)" d="m 13.339125,1.058333 c -0.87947,0 -1.5875,0.70803 -1.5875,1.5875001 v 0.2178258 c 0,2.5014412 -1.45238,4.2655413 -3.7970487,4.2655413 H 7.7828752 c -0.8794699,0 -1.5875,0.70802 -1.5875,1.5875 v 3.3439818 c 0,0.87948 0.7080912,1.597864 1.5875,1.5875 h 3.9687498 v 14.145987 c 0,8.315705 10.840166,3.807002 10.840166,3.807002 0.945616,-0.396875 1.5875,-0.807249 1.5875,-2.14974 v -4.575217 c 0,-0.879469 -0.800375,-1.434098 -1.5875,-1.041797 l -1.128097,0.56224 -1.336352,0.56224 c -1.212061,0.509947 -1.856735,-0.152042 -1.856735,-0.792484 V 2.6458331 c 0,-0.8794701 -0.70803,-1.5875001 -1.5875,-1.5875001 z" paint-order="fill markers stroke"/><path d="m 12.188396,2.9354465 v -0.26354 h 0.52917 v 0.26354 z m 1.32189,0 v -0.26354 h 0.52968 v 0.26354 z m 1.20819,0 v -0.26354 h 0.52917 v 0.26354 z m 1.32395,0 v -0.26354 h 0.52917 v 0.26354 z m 1.3224,0 v -0.26354 h 0.52918 v 0.26354 z" style="line-height:normal;font-variant-ligatures:normal;font-variant-position:normal;font-variant-caps:normal;font-variant-numeric:normal;font-variant-alternates:normal;font-variant-east-asian:normal;font-feature-settings:normal;font-variation-settings:normal;text-indent:0;text-align:start;text-decoration-line:none;text-decoration-style:solid;text-decoration-color:#000;text-transform:none;text-orientation:mixed;white-space:normal;shape-padding:0;shape-margin:0;inline-size:0;isolation:auto;mix-blend-mode:normal;solid-color:#000;solid-opacity:1" fill="#594b61" color="#000" enable-background="accumulate" font-family="sans-serif" font-weight="400" overflow="visible" paint-order="markers fill stroke"/></g></svg>