<svg xmlns="http://www.w3.org/2000/svg" xmlns:xlink="http://www.w3.org/1999/xlink" width="128" height="128" viewBox="0 0 33.867 33.867"><defs><linearGradient id="c"><stop offset="0" stop-color="#01d5f4"/><stop offset="1" stop-color="#00b0ef"/></linearGradient><linearGradient id="d"><stop offset="0" stop-color="#01d5f4"/><stop offset="1" stop-color="#00b1f0"/></linearGradient><linearGradient id="a"><stop offset="0" stop-color="#f6f600"/><stop offset="1" stop-color="#f69134"/></linearGradient><linearGradient id="b"><stop offset="0" stop-color="#01d5f4"/><stop offset="1" stop-color="#009ded"/></linearGradient><linearGradient id="e" x1="8.462" x2="25.822" y1="17.858" y2="17.858" gradientUnits="userSpaceOnUse" xlink:href="#b"/><linearGradient id="h" x1="23.596" x2="13.783" y1="11.393" y2="25.245" gradientUnits="userSpaceOnUse" xlink:href="#b"/><linearGradient id="f" x1="8.462" x2="12.37" y1="17.858" y2="17.231" gradientUnits="userSpaceOnUse" xlink:href="#c"/><linearGradient id="g" x1="9.661" x2="15.426" y1="19.496" y2="19.483" gradientUnits="userSpaceOnUse" xlink:href="#d"/></defs><g fill="url(#e)" transform="translate(-14.444 -15.753) scale(1.8304)"><path fill="url(#f)" d="m 17.061828,15.169543 c 0,0 -1.591253,0.945963 -4.267733,1.055049 -2.67648,0.109085 -3.6454773,-0.603388 -3.6454773,-0.603388 0,0 -1.156768,-0.594363 -0.466376,1.552366 0.566488,1.76146 3.0663453,2.397385 3.0663453,2.397385 0,0 3.04278,1.017013 5.676367,-0.304915 2.633589,-1.321924 2.801345,-2.379883 2.867502,-3.123104 0.06616,-0.74322 -3.230628,-0.973393 -3.230628,-0.973393 z" paint-order="fill markers stroke"/><path fill="url(#g)" d="m 17.718976,16.600358 c 0,0 -1.161809,1.342204 -3.564327,2.251189 -2.402518,0.908984 -3.499822,0.553806 -3.499822,0.553806 0,0 -1.2324393,-0.190894 0.04525,1.553702 1.048385,1.431497 3.515569,1.253885 3.515569,1.253885 0,0 3.076521,0.0049 5.073083,-1.994744 1.996566,-1.999656 1.829153,-3.01312 1.664506,-3.709443 -0.164647,-0.696325 -3.234261,0.09161 -3.23426,0.09161 z" paint-order="fill markers stroke"/><path fill="url(#h)" d="m 20.820666,10.252604 c -2.171999,0.0023 -3.931542,1.763676 -3.931542,3.935677 1.14e-4,0.274945 0.02904,0.549121 0.0863,0.818038 -0.567679,-0.0083 -2.082746,-0.118506 -4.005955,-1.006141 -2.432153,-1.122531 -2.9703633,-2.198315 -2.9703633,-2.198315 0,0 -0.758725,-1.056055 -1.12241,1.169438 -0.298419,1.826088 1.6371093,3.53105 1.6371093,3.53105 0,0 2.244767,2.292235 5.191413,2.315621 1.353622,0.01075 0.69778,1.190842 -0.233577,1.987476 -3.718387,3.180506 -4.224043,2.65204 -5.323189,2.5585 -0.5737863,-0.04883 -1.0489983,0.573525 0.07803,1.224215 2.462467,1.421706 8.308702,1.479551 11.582755,-2.659786 2.770888,-3.503192 3.023512,-6.663532 3.008603,-7.658964 0.365236,-0.20179 0.692322,-0.45421 0.842841,-0.760677 0.443793,-0.903587 -0.170016,-0.796334 -0.170016,-0.796334 l -0.695047,0.04031 c 0.407037,-0.309181 0.787529,-0.687914 0.890902,-1.094509 0.248047,-0.975651 -0.330729,-0.744141 -0.330729,-0.744141 l -1.760098,0.479041 C 22.858573,10.662451 21.862681,10.252542 20.8248,10.252604 Z" paint-order="fill markers stroke"/></g><path style="line-height:normal;font-variant-ligatures:normal;font-variant-position:normal;font-variant-caps:normal;font-variant-numeric:normal;font-variant-alternates:normal;font-variant-east-asian:normal;font-feature-settings:normal;font-variation-settings:normal;text-indent:0;text-align:start;text-decoration-line:none;text-decoration-style:solid;text-decoration-color:#000;text-transform:none;text-orientation:mixed;white-space:normal;shape-padding:0;shape-margin:0;inline-size:0;isolation:auto;mix-blend-mode:normal;solid-color:#000;solid-opacity:1" fill="#007cdc" d="M20.330078 26.570312l-.113281.06836-.201172.11914-.02539.01367-.115234.06445.130859.230468.115235-.06445.02734-.01563.203124-.121094.113282-.06641zm-1.146484.642579l-.117188.06055-.103515.05273-.13086.06445-.11914.05859.115234.236328.119141-.05664.132812-.06641.105469-.05469.119141-.05859zm-1.185547.564453l-.121094.05078-.246094.09961-.121093.05078.101562.246093.121094-.05078.246094-.101562.121093-.05078zm-1.224609.474609l-.125.04492-.07813.02539-.171874.05664-.125.04102.08203.251953.125-.04102.173828-.05664.08008-.02734.125-.04492zm-10.8164068.15625l-.09375.246094.1230469.04687.080078.03125.1738282.05859.125.04297.085937-.25-.125-.04297-.1699219-.05859-.076172-.0293zm9.5624998.230469l-.128906.03516-.128906.0332-.125.0293-.128907.03125.0625.257813.128907-.03125.126953-.03125.130859-.0332.128907-.03516zm-8.316406.152344l-.058594.257812.1289063.0293.2089844.04883.050781.0098.1289063.02734.054687-.259765-.1289063-.02539-.048828-.0098-.2070313-.04883zm7.035156.140625l-.128906.02539-.105469.01758L13.849609 29l-.128906.02344.04297.259765.130859-.02148.15625-.02539.105469-.01953.130859-.02539zm-5.7499998.113281l-.035156.261719.1308594.01953.1835937.02539.080078.0098.1308594.01758.033203-.263672-.1308594-.01563-.080078-.0098-.1816406-.02539zm4.4511718.08203l-.130859.01563-.261719.02539-.130859.01172.02539.263671.13086-.01367.263672-.02344.002-.002.132812-.01367zm-3.1464842.06445l-.015625.263672.1328124.0078.2148438.01367.05078.002.132813.0059.01172-.263672-.132812-.0059-.04883-.002-.2128908-.01367zm1.8398432.0332l-.132812.0039-.08984.002-.171875.002-.132812.0039.0039.263672.132813-.002.173828-.002.0918-.0039.132813-.0039zM2.8710938 9.4160156L2.6269531 9.5156246 2.8339844 10.005859 3.0761719 9.9003906zm.5527343 1.1855464l-.2324219.125.261719.464843.2285156-.132812zm.6777344 1.117188l-.2167969.152344.308594.43164.2128906-.154296zm.7929687 1.041016l-.1992187.173828.3535167.396488.1972657-.177734zm.9023438.947265l-.1796875.19336.3945308.359371.1738281-.201172zm.9980469.847657l-.1601563.210937.4296874.314464.1542969-.214844zm1.078125.738281l-.1347657.228515.4609374.26563.1289062-.230468zm1.1523437.623047l-.1132812.240234.4843752.2207.1074216-.242184zm1.2070314.503906l-.08594.25.501956.17187.08398-.251953zm1.253906.378906l-.0625.257813.519531.11718.05469-.259766zm1.285156.25l-.03516.261719.529299.06444.02734-.263672zm1.302735.12109l-.0078.263672.531251.0118.002-.265624z" color="#000" enable-background="accumulate" font-family="sans-serif" font-weight="400" overflow="visible" paint-order="fill markers stroke"/></svg>