<svg xmlns="http://www.w3.org/2000/svg" xmlns:xlink="http://www.w3.org/1999/xlink" width="128" height="128" viewBox="0 0 33.867 33.867"><defs><linearGradient id="a"><stop offset="0" stop-color="#f6f600"/><stop offset="1" stop-color="#f69134"/></linearGradient><linearGradient id="b"><stop offset="0" stop-color="#01d5f4"/><stop offset="1" stop-color="#009ded"/></linearGradient><linearGradient id="c" x1="16.933" x2="16.933" y1="1.058" y2="32.808" gradientUnits="userSpaceOnUse" xlink:href="#b"/></defs><path fill="url(#c)" d="m 1.3568083,8.5147391 c 0,0 4.3371739,-3.7804195 6.3599005,-5.1176902 C 10.442379,1.5950446 13.797044,2.604167 14.076602,6.9289761 14.356159,11.253785 15.26472,22.714529 17.85061,21.849567 20.436501,20.984605 25.049172,11.902506 23.930949,10.316744 22.812725,8.7309796 19.10861,10.749224 20.087055,8.0822581 21.065501,5.4152928 24.839506,0.36968255 30.849956,3.1808084 36.860407,5.9919343 27.844732,22.93077 19.877388,29.201742 11.910046,35.472715 9.6037132,27.832219 8.4155959,19.975483 7.2274861,12.118747 6.7382637,8.8030602 4.6415946,9.5238613 4.1199768,9.7031863 2.9953126,10.040229 2.5525012,10.165125 1.2154305,10.542252 0.66450321,9.2287519 1.3568083,8.5147391 Z" paint-order="fill markers stroke"/><path style="line-height:normal;font-variant-ligatures:normal;font-variant-position:normal;font-variant-caps:normal;font-variant-numeric:normal;font-variant-alternates:normal;font-variant-east-asian:normal;font-feature-settings:normal;font-variation-settings:normal;text-indent:0;text-align:start;text-decoration-line:none;text-decoration-style:solid;text-decoration-color:#000;text-transform:none;text-orientation:mixed;white-space:normal;shape-padding:0;shape-margin:0;inline-size:0;isolation:auto;mix-blend-mode:normal;solid-color:#000;solid-opacity:1" fill="#007cdc" d="M13.089844 7.5l-.263672.013672.02539.5292969.265626-.013672zm.07422 1.3222656l-.263671.017578.03516.5273437.263672-.017578zm.0957 1.3183594l-.265625.02148.04492.529297.263672-.02148zm.113281 1.318359l-.263672.02539.05273.527344.263672-.02539zm.136719 1.316407l-.263672.0293.05859.527343.263671-.0293zm.15625 1.3125l-.263672.03516.07031.525391.263672-.03516zm.183593 1.310547l-.263671.03906.08203.525391.261719-.04297zm.210938 1.302734l-.259766.04883.0957.521484.261719-.04883zm.251953 1.296875l-.257812.05664.113281.517578.259765-.05664zm.302734 1.283203l-.255859.06836.140625.513672.253906-.07227zm.373047 1.261719l-.25.08594.179688.501953.248047-.0918zM31.611328 6.9980469l-.11914.5136719.255859.0625.121094-.5175782zm-.320312 1.2773437l-.146485.5097656.253907.072266.146484-.5097657zM30.912109 9.5410156L30.75 10.044922l.251953.08203.164063-.5039061zm-.417968 1.2539064l-.179688.496094.25.0918.179688-.501953zm-.457032 1.238281l-.193359.492188.248047.09766.193359-.494141zm-.490234 1.226563l-.207031.488281.24414.103515.207032-.488281zm-.527344 1.210937l-.220703.480469.240234.113281.220704-.482422zm-.5625 1.197266l-.234375.472656.236328.119141.236328-.476563zm-.595703 1.177734l-.25.466797.234375.125.25-.466797zm-.632812 1.160156l-.263672.457032.228515.134765.265625-.460937zm-.667969 1.138672l-.279297.449219.224609.140625.279297-.451172zm-.705078 1.117188l-.292969.439453.21875.148437.294922-.443359zm-.742188 1.091797l-.30664.43164.214843.154297.308594-.431641zM24.333984 22.417969L24.011719 22.837891 24.220703 23 24.544922 22.580078zm-.816406 1.037109l-.339844.40625.203125.169922.339844-.40625zm-.857422 1.00586l-.353515.392578.197265.177734.355469-.394531zm-.890625.972656l-.367187.378906.189453.185547.369141-.380859zm-.927734.935547l-.386719.363281.181641.193359.386719-.363281zm-.976563.886718l-.40625.335938.167969.205078.410156-.339844zm-1.027343.816407l-.433594.300781.148437.21875.4375-.302735zm-1.097657.714843l-.464843.248047.121093.236328.470704-.251953zm-4.080078.365235l-.162109.210937.464844.296875.121093-.234375zm2.902344.189453l-.496094.15625.07031.255859.513672-.162109zm-1.763672.273437l-.01953.263672.541015.01172-.0039-.263672z" color="#000" enable-background="accumulate" font-family="sans-serif" font-weight="400" overflow="visible" paint-order="fill markers stroke"/></svg>