<svg xmlns="http://www.w3.org/2000/svg" xmlns:xlink="http://www.w3.org/1999/xlink" width="128" height="128" viewBox="0 0 33.867 33.867"><defs><linearGradient id="a"><stop offset="0" stop-color="#f6f600"/><stop offset="1" stop-color="#f69134"/></linearGradient><linearGradient id="b"><stop offset="0" stop-color="#00ce4e"/><stop offset="1" stop-color="#a7e890"/></linearGradient><linearGradient id="c"><stop offset="0" stop-color="#f5f8ff"/><stop offset="1" stop-color="#a0c9ff"/></linearGradient><linearGradient id="d" x1="13.097" x2="12.816" y1="24.176" y2="2.381" gradientTransform="matrix(3.77953 0 0 4.02977 0 -.596)" gradientUnits="userSpaceOnUse" xlink:href="#b"/><linearGradient id="e" x1="13.097" x2="12.816" y1="24.176" y2="2.381" gradientTransform="matrix(-.71951 0 0 .76715 33.56 12.32)" gradientUnits="userSpaceOnUse" xlink:href="#b"/><linearGradient id="f" x1="7.871" x2="10.253" y1="7.21" y2="7.21" gradientTransform="rotate(90 11.495 6.699) scale(1.37408)" gradientUnits="userSpaceOnUse" xlink:href="#c"/><linearGradient id="g" x1="7.871" x2="10.253" y1="7.21" y2="7.21" gradientTransform="rotate(90 15.818 11.022) scale(1.37408)" gradientUnits="userSpaceOnUse" xlink:href="#c"/><linearGradient id="h" x1="7.871" x2="10.253" y1="7.21" y2="7.21" gradientTransform="rotate(90 11.8 7.003) scale(1.37408)" gradientUnits="userSpaceOnUse" xlink:href="#c"/><linearGradient id="i" x1="7.871" x2="10.253" y1="7.21" y2="7.21" gradientTransform="rotate(90 15.28 10.484) scale(1.37408)" gradientUnits="userSpaceOnUse" xlink:href="#c"/></defs><path fill="url(#d)" d="M 54.216797 9 A 50.499999 43.847853 0 0 0 4 52.847656 A 50.499999 43.847853 0 0 0 20.152344 84.990234 L 14.537109 94.71875 C 12.558606 98.987519 16.593177 101.11847 19.345703 99.529297 L 32.119141 92.154297 A 50.499999 43.847853 0 0 0 54.5 96.695312 A 50.499999 43.847853 0 0 0 105 52.847656 A 50.499999 43.847853 0 0 0 54.5 9 A 50.499999 43.847853 0 0 0 54.216797 9 z " paint-order="fill markers stroke" transform="scale(.26458)"/><path fill="url(#e)" d="m 23.238622,14.147576 a 9.6137283,8.3473531 0 0 1 9.559815,8.347314 9.6137283,8.3473531 0 0 1 -3.074934,6.119012 l 1.068975,1.852026 c 0.376649,0.81265 -0.391416,1.218321 -0.915416,0.915788 l -2.431691,-1.403984 a 9.6137283,8.3473531 0 0 1 -4.260662,0.864476 9.6137283,8.3473531 0 0 1 -9.61373,-8.347318 9.6137283,8.3473531 0 0 1 9.61373,-8.347314 9.6137283,8.3473531 0 0 1 0.05391,0 z" paint-order="fill markers stroke"/><g transform="translate(1.81 2.91)"><path fill="url(#f)" d="M 8.2868775,9.2913034 A 1.6360166,1.6360166 0 0 1 6.6508608,7.6552872 1.6360166,1.6360166 0 0 1 8.2868775,6.0192706 1.6360166,1.6360166 0 0 1 9.9228935,7.6552872 1.6360166,1.6360166 0 0 1 8.2868775,9.2913034 Z" paint-order="fill markers stroke"/><path fill="url(#g)" d="M 16.933335,9.2913034 A 1.6360166,1.6360166 0 0 1 15.297318,7.6552872 1.6360166,1.6360166 0 0 1 16.933335,6.0192706 1.6360166,1.6360166 0 0 1 18.569351,7.6552872 1.6360166,1.6360166 0 0 1 16.933335,9.2913034 Z" paint-order="fill markers stroke"/></g><g transform="translate(10.808 12.237)"><path fill="url(#h)" d="M 8.8949156,9.2913034 A 1.6360166,1.6360166 0 0 1 7.2588989,7.6552872 1.6360166,1.6360166 0 0 1 8.8949156,6.0192706 1.6360166,1.6360166 0 0 1 10.530932,7.6552872 1.6360166,1.6360166 0 0 1 8.8949156,9.2913034 Z" paint-order="fill markers stroke"/><path fill="url(#i)" d="M 15.857575,9.2913034 A 1.6360166,1.6360166 0 0 1 14.221558,7.6552872 1.6360166,1.6360166 0 0 1 15.857575,6.0192706 1.6360166,1.6360166 0 0 1 17.493591,7.6552872 1.6360166,1.6360166 0 0 1 15.857575,9.2913034 Z" paint-order="fill markers stroke"/></g><path style="line-height:normal;font-variant-ligatures:normal;font-variant-position:normal;font-variant-caps:normal;font-variant-numeric:normal;font-variant-alternates:normal;font-variant-east-asian:normal;font-feature-settings:normal;font-variation-settings:normal;text-indent:0;text-align:start;text-decoration-line:none;text-decoration-style:solid;text-decoration-color:#000;text-transform:none;text-orientation:mixed;white-space:normal;shape-padding:0;shape-margin:0;inline-size:0;isolation:auto;mix-blend-mode:normal;solid-color:#000;solid-opacity:1" fill="#1e9a4a" d="m 25.062512,10.264096 -0.21289,0.09375 0.17773,0.423825 0.214844,-0.08789 z m 0.408203,1.09961 -0.222656,0.0625 0.11718,0.445314 0.224609,-0.05664 z m 0.259766,1.144531 -0.230469,0.0293 0.05669,0.457032 0.230469,-0.02344 z m 0.09961,1.166016 -0.230469,0.0039 -0.002,0.458981 0.230468,0.0039 z m -15.785169,9.302309 -0.078125,0.21875 0.441406,0.15238 0.07031,-0.220703 z m 1.09375,0.345704 -0.06055,0.222656 0.453172,0.11328 0.05469,-0.224609 z m 1.11914,0.24414 -0.03711,0.228516 0.460938,0.07032 0.03125,-0.230468 z" color="#000" enable-background="accumulate" font-family="sans-serif" font-weight="400" overflow="visible" paint-order="fill markers stroke"/></svg>