<svg xmlns="http://www.w3.org/2000/svg" xmlns:xlink="http://www.w3.org/1999/xlink" width="128" height="128" viewBox="0 0 33.867 33.867"><defs><linearGradient id="a"><stop offset="0" stop-color="#f6f600"/><stop offset="1" stop-color="#f69134"/></linearGradient><linearGradient id="b"><stop offset="0" stop-color="#00ce4e"/><stop offset="1" stop-color="#a7e890"/></linearGradient><linearGradient id="d" x1="17.471" x2="17.611" y1="29.43" y2="1.058" gradientTransform="matrix(1.04447 0 0 1.04447 -1.459 -.047)" gradientUnits="userSpaceOnUse" xlink:href="#b"/><linearGradient id="e" x1="17.775" x2="18.362" y1="10.861" y2="33.338" gradientTransform="matrix(1.06098 0 0 1.06098 -1.052 -1.888)" gradientUnits="userSpaceOnUse" xlink:href="#c"/><linearGradient id="c"><stop offset="0" stop-color="#f5f8ff"/><stop offset="1" stop-color="#a0c9ff"/></linearGradient></defs><path fill="url(#d)" d="M 16.93556,1.0583333 C 8.1694332,1.0585159 1.0632121,8.1649784 1.0633273,16.931106 c 1.05e-4,2.882377 0.7850851,5.710321 2.2707003,8.18035 l -0.8496093,5.758465 c -0.2210501,1.410763 0.9090354,2.103084 1.9625067,1.906374 l 6.436493,-1.172806 c 1.919478,0.791969 3.9757,1.19962 6.052142,1.199851 8.766128,1.16e-4 15.872591,-7.106107 15.872773,-15.872234 C 32.808448,8.1647677 25.701898,1.058218 16.93556,1.0583333 Z" paint-order="fill markers stroke"/><path style="line-height:normal;font-variant-ligatures:normal;font-variant-position:normal;font-variant-caps:normal;font-variant-numeric:normal;font-variant-alternates:normal;font-variant-east-asian:normal;font-feature-settings:normal;font-variation-settings:normal;text-indent:0;text-align:start;text-decoration-line:none;text-decoration-style:solid;text-decoration-color:#000;text-transform:none;text-orientation:mixed;white-space:normal;shape-padding:0;shape-margin:0;inline-size:0;isolation:auto;mix-blend-mode:normal;solid-color:#000;solid-opacity:1" fill="url(#e)" d="M 12.476514,8.7612452 C 11.469814,7.7849473 10.057388,9.0119609 9.4642537,9.6688596 8.1854926,11.08509 7.6950735,13.213983 8.3256377,15.294078 c 0.6305448,2.080035 2.1636993,4.173481 4.6984823,6.462259 2.534823,2.288735 4.773407,3.600912 6.906807,4.016534 2.13346,0.415633 4.201403,-0.288867 5.480162,-1.705095 0.593137,-0.656898 1.67006,-2.186845 0.596398,-3.088978 -0.07154,-0.06018 -0.152818,-0.11739 -0.244291,-0.171503 l -3.560497,-1.133098 c -0.596005,-0.242929 -1.105761,0.08722 -1.504348,0.451026 l -1.770333,1.615925 C 17.928749,21.232581 16.724431,20.409844 15.355755,19.17405 13.987104,17.938223 13.046094,16.823876 12.43849,15.881546 l 1.4274,-1.925572 c 0.321354,-0.433539 0.597925,-0.974243 0.295611,-1.542434 L 12.671987,8.9868156 C 12.608848,8.9013216 12.543629,8.8263313 12.476516,8.7612442 Z" color="#000" enable-background="accumulate" font-family="sans-serif" font-weight="400" overflow="visible" paint-order="fill markers stroke"/><path style="line-height:normal;font-variant-ligatures:normal;font-variant-position:normal;font-variant-caps:normal;font-variant-numeric:normal;font-variant-alternates:normal;font-variant-east-asian:normal;font-feature-settings:normal;font-variation-settings:normal;text-indent:0;text-align:start;text-decoration-line:none;text-decoration-style:solid;text-decoration-color:#000;text-transform:none;text-orientation:mixed;white-space:normal;shape-padding:0;shape-margin:0;inline-size:0;isolation:auto;mix-blend-mode:normal;solid-color:#000;solid-opacity:1" fill="#1e9a4a" d="m 17.023438,3.1757812 -0.0039,0.265625 0.525391,0.013672 0.0098,-0.265625 z m -0.804688,0.017578 -0.529297,0.037109 0.01953,0.2636718 0.527344,-0.037109 z m 2.138672,0.054687 -0.03125,0.2636719 0.521484,0.064453 0.03711,-0.2617188 z m -3.466797,0.080078 -0.523437,0.087891 0.04687,0.2617188 0.517579,-0.087891 z m 4.785156,0.1230469 -0.05469,0.2597656 0.515624,0.113286 0.05859,-0.2578126 z m -6.095703,0.1386719 -0.511719,0.140625 0.07227,0.2539062 0.507813,-0.1386719 z m 7.390625,0.1894531 -0.08008,0.2519531 0.499998,0.166016 0.08594,-0.25 z m -8.666015,0.1972656 -0.498047,0.1875 0.0957,0.2480469 0.492187,-0.1855469 z m 9.919921,0.2578125 -0.101562,0.2441406 0.482425,0.208984 0.107422,-0.2402344 z m -11.15625,0.2519531 -0.476562,0.2363281 0.121094,0.2363282 0.472656,-0.234375 z m 12.365235,0.3203125 -0.128906,0.2324219 0.458984,0.257812 0.132812,-0.2285156 z M 9.8925781,5.1132804 9.4394531,5.3945304 9.5800781,5.6171867 10.027344,5.3417961 Z M 24.576172,5.4941398 24.427734,5.714843 24.859371,6.0136721 25.013668,5.7988283 Z M 8.7773438,5.8535156 8.3554688,6.1777344 8.5214844,6.3847656 8.9375,6.0644531 Z M 25.650391,6.2890625 25.480469,6.4902344 25.878904,6.833988 26.054686,6.6347692 Z M 7.7441406,6.6953125 7.3554688,7.0585938 7.5371094,7.25 7.921875,6.8925781 Z m 18.8964844,0.4882813 -0.1875,0.1855468 0.365234,0.3789063 0.191407,-0.1816407 z M 6.7929688,7.6347656 6.4414062,8.0351562 6.6425781,8.2050781 6.9902344,7.8105469 Z M 27.542969,8.1699219 27.335938,8.3339844 27.666016,8.75 27.873047,8.5839844 Z M 5.9394531,8.6601562 5.6289062,9.0917969 5.84375,9.2441406 6.1523438,8.8183594 Z M 28.339844,9.2402344 28.119141,9.3867188 28.404297,9.828125 28.628906,9.6855469 Z M 5.1875,9.765625 4.9199219,10.222656 5.1484375,10.355469 5.4160156,9.8984375 Z m 23.845703,0.617187 -0.234375,0.121094 0.240234,0.46875 0.236329,-0.117187 z M 4.5507812,10.9375 4.328125,11.419922 l 0.2402344,0.109375 0.1640625,-0.359375 0.056641,-0.119141 z m 25.0585938,0.648438 -0.244141,0.101562 0.195313,0.488281 0.246094,-0.0957 z m -25.5839844,0.580078 -0.171875,0.503906 0.2519532,0.08203 0.1699218,-0.498047 z m 26.0429684,0.673828 -0.253906,0.07617 0.146485,0.505859 0.253906,-0.07031 z m -26.4414059,0.599609 -0.125,0.517578 0.2558594,0.06055 0.125,-0.511719 z m 26.7753909,0.691406 -0.259766,0.05469 0.09961,0.517578 0.259765,-0.04883 z m -27.0507815,0.615235 -0.074219,0.527344 0.2617187,0.0332 0.074219,-0.521485 z m 27.2597655,0.705078 -0.263672,0.02734 0.04687,0.523437 0.263672,-0.02148 z m -27.4101561,0.623047 -0.023437,0.529297 0.2636718,0.01172 0.023438,-0.529296 z m 27.2265621,0.708984 -0.0059,0.527344 0.263672,0.0059 0.0059,-0.53125 z m -26.9785152,0.613281 -0.265625,0.01172 0.029297,0.53125 0.2636719,-0.01563 z m 26.9277342,0.697266 -0.05469,0.523438 0.263672,0.0293 0.05469,-0.529296 z M 3.5546875,18.701172 3.2929688,18.740234 3.375,19.265625 3.6347656,19.220703 Z m 26.6484375,0.689453 -0.107422,0.515625 0.257813,0.05664 0.109375,-0.519532 z m -26.4121094,0.601563 -0.2578125,0.06055 0.1289063,0.515625 0.2558594,-0.06641 z m 26.1093754,0.673828 -0.15625,0.501953 0.253906,0.08008 0.15625,-0.507813 z M 4.1464844,21.25 l -0.2480469,0.08789 0.1816406,0.5 0.2460938,-0.09375 z m 25.3320316,0.654297 -0.205078,0.484375 0.242187,0.107422 0.207031,-0.490235 z M 4.6289062,22.46875 4.3867188,22.580078 4.6152344,23.060547 4.8535156,22.945312 Z m 24.3066408,0.628906 -0.25,0.462891 0.232422,0.128906 0.251953,-0.46875 z m -23.7148439,0.53711 -0.2265625,0.136718 0.2714844,0.453125 0.2265625,-0.134765 z m 23.0605469,0.597656 -0.291016,0.439453 0.21875,0.146484 0.294922,-0.441406 z m -0.759766,1.066406 -0.333984,0.40625 0.203125,0.169922 0.337891,-0.410156 z m -0.861328,0.986328 -0.371094,0.375 0.1875,0.1875 0.375,-0.378906 z m -0.951172,0.898438 -0.40625,0.333984 0.166016,0.207031 0.410156,-0.33789 z m -1.033203,0.802734 -0.439453,0.291016 0.144531,0.222656 0.441407,-0.294922 z m -1.111328,0.697266 -0.462891,0.25 0.125,0.234375 0.466797,-0.253907 z m -1.167969,0.58789 -0.486328,0.203125 0.09766,0.246094 L 22.5,29.515625 Z m -1.224609,0.470704 -0.501953,0.158203 0.07813,0.253906 0.507812,-0.160156 z m -1.259766,0.351562 -0.515625,0.107422 0.05078,0.259766 0.519531,-0.107422 z m -5.722656,0.05078 -0.05273,0.257813 0.523437,0.09961 0.04687,-0.259765 z m 4.433594,0.177735 -0.525391,0.05664 0.02734,0.263672 0.527344,-0.05664 z m -3.142578,0.0293 -0.02344,0.261719 0.527344,0.04687 0.02344,-0.263672 z m 1.835937,0.07031 -0.527344,0.0059 v 0.263672 l 0.533204,-0.0059 z" color="#000" enable-background="accumulate" font-family="sans-serif" font-weight="400" overflow="visible" paint-order="fill markers stroke"/></svg>