<svg xmlns="http://www.w3.org/2000/svg" xmlns:xlink="http://www.w3.org/1999/xlink" width="128" height="128" viewBox="0 0 33.867 33.867"><defs><linearGradient id="b"><stop offset="0" stop-color="red"/><stop offset="1" stop-color="red" stop-opacity="0"/></linearGradient><linearGradient id="a"><stop offset="0" stop-color="#f6f600"/><stop offset="1" stop-color="#f69134"/></linearGradient><linearGradient id="d"><stop offset="0" stop-color="#d90947"/><stop offset="1" stop-color="#ff585b"/></linearGradient><linearGradient id="c"><stop offset="0" stop-color="#f5f8ff"/><stop offset="1" stop-color="#a0c9ff"/></linearGradient><linearGradient id="f" x1="2.734" x2="19.133" y1="10.279" y2="10.279" gradientTransform="matrix(.16691 .56159 -.6075 .1543 21.202 7.862)" gradientUnits="userSpaceOnUse" xlink:href="#c"/><linearGradient id="e" x1="16.933" x2="16.933" y1="30.163" y2="2.381" gradientUnits="userSpaceOnUse" xlink:href="#d"/></defs><path fill="url(#e)" d="m 6.349999,3.7041659 h 21.166669 c 2.931583,0 5.291666,2.3600833 5.291666,5.2916665 V 24.870835 c 0,2.931584 -2.360083,5.291667 -5.291666,5.291667 H 6.349999 c -2.9315833,0 -5.2916666,-2.360083 -5.2916666,-5.291667 V 8.9958324 c 0,-2.9315832 2.3600833,-5.2916665 5.2916666,-5.2916665 z" paint-order="fill markers stroke"/><path d="m 2.1169235,27.023901 v 0.26355 h 0.52917 v -0.26355 z m 1.3224,0 v 0.26355 h 0.52917 v -0.26355 z m 1.32395,0 v 0.26355 h 0.52917 v -0.26355 z m 1.3224,0 v 0.26355 h 0.52917 v -0.26355 z m 1.3224,0 v 0.26355 h 0.52917 v -0.26355 z m 1.32395,0 v 0.26355 h 0.52917 v -0.26355 z m 1.3224005,0 v 0.26355 h 0.529169 v -0.26355 z m 1.322399,0 v 0.26355 h 0.52917 v -0.26355 z m 1.32395,0 v 0.26355 h 0.52917 v -0.26355 z m 1.3224,0 v 0.26355 h 0.52917 v -0.26355 z m 1.3224,0 v 0.26355 h 0.52917 v -0.26355 z m 1.32395,0 v 0.26355 h 0.52917 v -0.26355 z m 1.3224,0 v 0.26355 h 0.52917 v -0.26355 z m 1.3224,0 v 0.26355 h 0.52917 v -0.26355 z m 1.32395,0 v 0.26355 h 0.52917 v -0.26355 z m 1.3224,0 v 0.26355 h 0.52917 v -0.26355 z m 1.3224,0 v 0.26355 h 0.52917 v -0.26355 z m 1.32395,0 v 0.26355 h 0.52762 v -0.26355 z m 1.3224,0 v 0.26355 h 0.52917 v -0.26355 z m 1.3224,0 v 0.26355 h 0.52917 v -0.26355 z m 1.32189,0 v 0.26355 h 0.52968 v -0.26355 z m 1.3224,0 v 0.26355 h 0.52916 v -0.26355 z m 1.32446,0 v 0.26355 h 0.52917 v -0.26355 z" style="line-height:normal;font-variant-ligatures:normal;font-variant-position:normal;font-variant-caps:normal;font-variant-numeric:normal;font-variant-alternates:normal;font-variant-east-asian:normal;font-feature-settings:normal;font-variation-settings:normal;text-indent:0;text-align:start;text-decoration-line:none;text-decoration-style:solid;text-decoration-color:#000;text-transform:none;text-orientation:mixed;white-space:normal;shape-padding:0;shape-margin:0;inline-size:0;isolation:auto;mix-blend-mode:normal;solid-color:#000;solid-opacity:1" fill="#8c092f" color="#000" enable-background="accumulate" font-family="sans-serif" font-weight="400" overflow="visible" paint-order="markers fill stroke"/><path fill="url(#f)" d="m 13.315429,21.22178 c -1.114977,-0.586407 -1.113096,-3.645317 -1.121229,-4.831156 -0.0081,-1.185839 -0.05198,-4.244481 1.054861,-4.843913 1.106844,-0.599432 3.971533,0.931531 5.086511,1.517938 1.114978,0.586407 4.002282,2.080624 4.010417,3.266463 0.0081,1.185839 -2.858438,2.713786 -3.965282,3.313219 -1.106843,0.599431 -3.9503,2.163856 -5.065278,1.577449 z" paint-order="fill markers stroke"/><path d="m 2.1169235,6.386401 v 0.26355 h 0.52917 v -0.26355 z m 1.3224,0 v 0.26355 h 0.52917 v -0.26355 z m 1.32395,0 v 0.26355 h 0.52917 v -0.26355 z m 1.3224,0 v 0.26355 h 0.52917 v -0.26355 z m 1.3224,0 v 0.26355 h 0.52917 v -0.26355 z m 1.32395,0 v 0.26355 h 0.52917 v -0.26355 z m 1.3224005,0 v 0.26355 h 0.529169 v -0.26355 z m 1.322399,0 v 0.26355 h 0.52917 v -0.26355 z m 1.32395,0 v 0.26355 h 0.52917 v -0.26355 z m 1.3224,0 v 0.26355 h 0.52917 v -0.26355 z m 1.3224,0 v 0.26355 h 0.52917 v -0.26355 z m 1.32395,0 v 0.26355 h 0.52917 v -0.26355 z m 1.3224,0 v 0.26355 h 0.52917 v -0.26355 z m 1.3224,0 v 0.26355 h 0.52917 v -0.26355 z m 1.32395,0 v 0.26355 h 0.52917 v -0.26355 z m 1.3224,0 v 0.26355 h 0.52917 v -0.26355 z m 1.3224,0 v 0.26355 h 0.52917 v -0.26355 z m 1.32395,0 v 0.26355 h 0.52762 v -0.26355 z m 1.3224,0 v 0.26355 h 0.52917 v -0.26355 z m 1.3224,0 v 0.26355 h 0.52917 v -0.26355 z m 1.32189,0 v 0.26355 h 0.52968 v -0.26355 z m 1.3224,0 v 0.26355 h 0.52916 v -0.26355 z m 1.32446,0 v 0.26355 h 0.52917 v -0.26355 z" style="line-height:normal;font-variant-ligatures:normal;font-variant-position:normal;font-variant-caps:normal;font-variant-numeric:normal;font-variant-alternates:normal;font-variant-east-asian:normal;font-feature-settings:normal;font-variation-settings:normal;text-indent:0;text-align:start;text-decoration-line:none;text-decoration-style:solid;text-decoration-color:#000;text-transform:none;text-orientation:mixed;white-space:normal;shape-padding:0;shape-margin:0;inline-size:0;isolation:auto;mix-blend-mode:normal;solid-color:#000;solid-opacity:1" fill="#8c092f" color="#000" enable-background="accumulate" font-family="sans-serif" font-weight="400" overflow="visible" paint-order="markers fill stroke"/></svg>